<svg width="16" height="16" viewBox="0 0 16 16" fill="none" xmlns="http://www.w3.org/2000/svg">
<path fill-rule="evenodd" clip-rule="evenodd" d="M8.00016 2.33325C4.8755 2.33325 2.3335 4.87525 2.3335 7.99992C2.3335 11.1246 4.8755 13.6666 8.00016 13.6666C11.1248 13.6666 13.6668 11.1246 13.6668 7.99992C13.6668 4.87525 11.1248 2.33325 8.00016 2.33325ZM8.00016 14.6666C4.32416 14.6666 1.3335 11.6759 1.3335 7.99992C1.3335 4.32392 4.32416 1.33325 8.00016 1.33325C11.6762 1.33325 14.6668 4.32392 14.6668 7.99992C14.6668 11.6759 11.6762 14.6666 8.00016 14.6666Z" fill="#993706"/>
<path fill-rule="evenodd" clip-rule="evenodd" d="M7.99623 8.91525C7.72023 8.91525 7.49623 8.69125 7.49623 8.41525V5.46925C7.49623 5.19325 7.72023 4.96925 7.99623 4.96925C8.27223 4.96925 8.49623 5.19325 8.49623 5.46925V8.41525C8.49623 8.69125 8.27223 8.91525 7.99623 8.91525Z" fill="#993706"/>
<path fill-rule="evenodd" clip-rule="evenodd" d="M8.00276 11.1972C7.6341 11.1972 7.33276 10.8992 7.33276 10.5305C7.33276 10.1619 7.6281 9.86385 7.9961 9.86385H8.00276C8.37143 9.86385 8.66943 10.1619 8.66943 10.5305C8.66943 10.8992 8.37143 11.1972 8.00276 11.1972Z" fill="#993706"/>
</svg>
