<svg width="24" height="24" viewBox="0 0 24 24" fill="none" xmlns="http://www.w3.org/2000/svg">
<path d="M8.34311 21.4535C8.63342 21.1697 8.63233 20.7107 8.34068 20.4282L5.55077 17.7253H17.2746L17.3757 17.7187C17.7394 17.6707 18.0197 17.3673 18.0197 17.0003C18.0197 16.5999 17.6861 16.2753 17.2746 16.2753L5.54995 16.2753L8.34068 13.5723L8.41302 13.4912C8.63012 13.2078 8.60703 12.805 8.34312 12.547C8.05281 12.2632 7.58103 12.2622 7.28938 12.5447L3.21945 16.4864L3.2149 16.4915C3.19258 16.5136 3.17171 16.537 3.15242 16.5617L3.14691 16.5679C2.92927 16.8521 2.95345 17.2565 3.21945 17.5141L7.28938 21.4559L7.37312 21.5259C7.66531 21.7358 8.0792 21.7115 8.34311 21.4535Z" fill="#E7446C"/>
<path d="M20.8531 8.09916C21.0707 7.81487 21.0466 7.41057 20.7805 7.15294L16.7106 3.21116L16.6269 3.14115C16.3347 2.93122 15.9208 2.95555 15.6569 3.21353L15.5849 3.295C15.3692 3.57931 15.3942 3.98202 15.6593 4.23881L18.4506 6.94165L6.72552 6.94165L6.62442 6.94827C6.26073 6.99627 5.98042 7.2996 5.98042 7.66664C5.98042 8.06703 6.31401 8.39162 6.72552 8.39162L18.4505 8.39162L15.6593 11.0947L15.587 11.1759C15.3699 11.4592 15.393 11.862 15.6569 12.12C15.9472 12.4038 16.419 12.4048 16.7106 12.1224L20.7805 8.18059L20.7847 8.17596C20.8074 8.15357 20.8286 8.12976 20.8482 8.10467L20.8531 8.09916Z" fill="#E7446C"/>
</svg>
