<svg width="24" height="24" viewBox="0 0 24 24" fill="none" xmlns="http://www.w3.org/2000/svg">
<path fill-rule="evenodd" clip-rule="evenodd" d="M1.25 7C1.25 4.37665 3.37665 2.25 6 2.25H18C20.6234 2.25 22.75 4.37665 22.75 7V14.5988C22.75 17.2221 20.6234 19.3488 18 19.3488H15.8058L10.6079 22.2417C9.77472 22.7054 8.75 22.103 8.75 21.1495V19.3488H6C3.37665 19.3488 1.25 17.2221 1.25 14.5988V7ZM6 3.75C4.20508 3.75 2.75 5.20508 2.75 7V14.5988C2.75 16.3937 4.20507 17.8488 6 17.8488H9.5C9.91421 17.8488 10.25 18.1846 10.25 18.5988V20.7242L15.201 17.9687C15.3423 17.89 15.5013 17.8488 15.663 17.8488H18C19.7949 17.8488 21.25 16.3937 21.25 14.5988V7C21.25 5.20507 19.7949 3.75 18 3.75H6Z" fill="#00D0A6"/>
<path fill-rule="evenodd" clip-rule="evenodd" d="M13.4179 9.04289C13.4179 9.17333 13.4697 9.29843 13.562 9.39066C13.6542 9.4829 13.7793 9.53472 13.9097 9.53472C14.0402 9.53472 14.1653 9.4829 14.2575 9.39066C14.3497 9.29843 14.4016 9.17333 14.4016 9.04289C14.4008 8.50079 14.209 7.9763 13.8599 7.56158C13.5108 7.14686 13.0267 6.86843 12.4927 6.77523V5.99182C12.4927 5.86138 12.4408 5.73629 12.3486 5.64405C12.2564 5.55182 12.1313 5.5 12.0008 5.5C11.8704 5.5 11.7453 5.55182 11.6531 5.64405C11.5608 5.73629 11.509 5.86138 11.509 5.99182V6.77523C10.9763 6.869 10.4937 7.14796 10.1467 7.56286C9.79956 7.97777 9.61019 8.50195 9.61197 9.04289V9.24046C9.61019 9.78141 9.79956 10.3056 10.1467 10.7205C10.4937 11.1354 10.9763 11.4144 11.509 11.5081V14.3167C11.241 14.2325 11.0068 14.0652 10.8404 13.8389C10.674 13.6125 10.5841 13.3391 10.5837 13.0582C10.5837 12.9278 10.5319 12.8027 10.4397 12.7104C10.3475 12.6182 10.2224 12.5664 10.0919 12.5664C9.96148 12.5664 9.83639 12.6182 9.74415 12.7104C9.65192 12.8027 9.6001 12.9278 9.6001 13.0582C9.60085 13.6003 9.79263 14.1248 10.1417 14.5396C10.4909 14.9543 10.975 15.2327 11.509 15.3259V16.1094C11.509 16.2398 11.5608 16.3649 11.6531 16.4571C11.7453 16.5494 11.8704 16.6012 12.0008 16.6012C12.1313 16.6012 12.2564 16.5494 12.3486 16.4571C12.4408 16.3649 12.4927 16.2398 12.4927 16.1094V15.3259C13.0254 15.2322 13.5079 14.9532 13.855 14.5383C14.2021 14.1234 14.3915 13.5992 14.3897 13.0582V12.8607C14.3915 12.3198 14.2021 11.7956 13.855 11.3807C13.5079 10.9658 13.0254 10.6868 12.4927 10.5931V7.78452C12.7606 7.86865 12.9948 8.03601 13.1612 8.2623C13.3276 8.48858 13.4175 8.76202 13.4179 9.04289ZM10.5956 9.24046V9.04289C10.5935 8.7631 10.6811 8.48998 10.8454 8.26355C11.0098 8.03711 11.2423 7.86924 11.509 7.78452V10.4988C11.2423 10.4141 11.0098 10.2462 10.8454 10.0198C10.6811 9.79337 10.5935 9.52026 10.5956 9.24046ZM13.406 12.8607V13.0582C13.4081 13.338 13.3206 13.6111 13.1562 13.8376C12.9919 14.0641 12.7593 14.2319 12.4927 14.3167V11.6023C12.7593 11.6871 12.9919 11.8549 13.1562 12.0814C13.3206 12.3078 13.4081 12.5809 13.406 12.8607Z" fill="#00D0A6"/>
</svg>
