<svg width="24" height="24" viewBox="0 0 24 24" fill="none" xmlns="http://www.w3.org/2000/svg">
<path d="M8.90041 15.1015C9.04641 15.2485 9.23841 15.3215 9.43041 15.3215C9.62241 15.3215 9.81441 15.2485 9.96041 15.1015L15.1014 9.9615C15.3944 9.6685 15.3944 9.1935 15.1014 8.9005C14.8084 8.6075 14.3334 8.6075 14.0404 8.9005L8.90041 14.0415C8.60741 14.3345 8.60741 14.8085 8.90041 15.1015Z" fill="#3B3A45"/>
<path d="M14.5035 15.4992C13.9505 15.4992 13.4985 15.0522 13.4985 14.4992C13.4985 13.9462 13.9415 13.4992 14.4945 13.4992H14.5035C15.0565 13.4992 15.5035 13.9462 15.5035 14.4992C15.5035 15.0522 15.0565 15.4992 14.5035 15.4992Z" fill="#3B3A45"/>
<path d="M8.49854 9.4992C8.49854 10.0522 8.95054 10.4992 9.50354 10.4992C10.0565 10.4992 10.5035 10.0522 10.5035 9.4992C10.5035 8.9462 10.0565 8.4992 9.50354 8.4992H9.49453C8.94153 8.4992 8.49854 8.9462 8.49854 9.4992Z" fill="#3B3A45"/>
<path fill-rule="evenodd" clip-rule="evenodd" d="M9.87797 21.1295C10.465 21.7115 11.232 22.0015 11.999 22.0015C12.773 22.0015 13.547 21.7055 14.134 21.1145L14.852 20.3965C15.133 20.1175 15.52 19.9575 15.916 19.9575H16.947C18.607 19.9575 19.958 18.6065 19.958 16.9465V15.9175C19.958 15.5155 20.114 15.1385 20.395 14.8555L21.128 14.1245C21.695 13.5535 22.006 12.7965 22.003 11.9915C22 11.1865 21.684 10.4315 21.115 9.8665L20.397 9.1475C20.114 8.8625 19.958 8.4835 19.958 8.0825V7.0555C19.958 5.3945 18.607 4.0435 16.946 4.0435H15.918C15.516 4.0435 15.138 3.8875 14.855 3.6065L14.124 2.8755C12.945 1.7035 11.034 1.7095 9.86497 2.8865L9.14997 3.6035C8.86297 3.8865 8.48497 4.0435 8.08397 4.0435H7.05397C5.39397 4.0445 4.04397 5.3955 4.04397 7.0555V8.0805C4.04397 8.4815 3.88697 8.8605 3.60597 9.1435L2.87797 9.8735L2.85097 9.9005C1.70397 11.0805 1.71797 12.9725 2.88597 14.1345L3.60497 14.8525C3.88697 15.1365 4.04397 15.5135 4.04397 15.9155V16.9465C4.04397 18.6065 5.39397 19.9575 7.05497 19.9575H8.08097C8.48297 19.9585 8.86097 20.1145 9.14397 20.3955L9.85397 21.1045C9.86196 21.1135 9.86997 21.1215 9.87797 21.1295ZM13.071 20.0555C12.485 20.6445 11.535 20.6515 10.945 20.0755C10.9416 20.0717 10.9382 20.068 10.935 20.0645C10.9315 20.0608 10.9281 20.0571 10.925 20.0535L10.204 19.3345C9.63697 18.7695 8.88397 18.4585 8.08197 18.4575H7.05497C6.22097 18.4575 5.54397 17.7795 5.54397 16.9465V15.9155C5.54397 15.1145 5.23297 14.3615 4.66697 13.7935L3.94497 13.0715C3.35397 12.4845 3.35097 11.5255 3.93797 10.9345L3.94497 10.9277C3.94963 10.9233 3.9543 10.9188 3.95897 10.9135L4.66897 10.2025C5.23297 9.6345 5.54397 8.8815 5.54397 8.0805V7.0555C5.54397 6.2225 6.22197 5.5445 7.05497 5.5435H8.08397C8.88197 5.5435 9.63497 5.2335 10.209 4.6665L10.928 3.9455C11.515 3.3545 12.474 3.3515 13.075 3.9465L13.797 4.6695C14.364 5.2325 15.117 5.5435 15.918 5.5435H16.946C17.78 5.5435 18.458 6.2215 18.458 7.0555V8.0825C18.458 8.8835 18.768 9.6355 19.335 10.2065L20.056 10.9285C20.343 11.2145 20.502 11.5935 20.503 11.9965C20.504 12.4005 20.347 12.7815 20.054 13.0755L19.334 13.7965C18.768 14.3635 18.458 15.1165 18.458 15.9175V16.9465C18.458 17.7795 17.78 18.4575 16.946 18.4575H15.916C15.127 18.4575 14.353 18.7765 13.793 19.3355L13.071 20.0555Z" fill="#3B3A45"/>
</svg>
