<svg id="Capa_1" data-name="Capa 1" xmlns="http://www.w3.org/2000/svg" viewBox="0 0 24 24"><defs><style>.cls-1{fill:#3b3a45;}</style></defs><title>browser</title><path class="cls-1" d="M15,7.74H3.61A2.61,2.61,0,0,0,1,10.35v8.54A2.61,2.61,0,0,0,3.61,21.5H15a2.61,2.61,0,0,0,2.61-2.61V10.35A2.61,2.61,0,0,0,15,7.74Zm1.19,11.15A1.19,1.19,0,0,1,15,20.08H3.61a1.19,1.19,0,0,1-1.19-1.19V13H16.18Zm0-7.35H2.42V10.35A1.18,1.18,0,0,1,3.61,9.17H15a1.18,1.18,0,0,1,1.19,1.18ZM19.74,3H8.35A2.61,2.61,0,0,0,5.74,5.61v.95H7.17V5.61A1.18,1.18,0,0,1,8.35,4.42H19.74a1.18,1.18,0,0,1,1.18,1.19v8.54a1.18,1.18,0,0,1-1.18,1.18H19v1.43h.77a2.61,2.61,0,0,0,2.61-2.61V5.61A2.61,2.61,0,0,0,19.74,3Z"/></svg>