<svg id="Capa_1" data-name="Capa 1" xmlns="http://www.w3.org/2000/svg" viewBox="0 0 24 24"><defs><style>.cls-1{fill:#3b3a45;}</style></defs><title>calendar</title><path class="cls-1" d="M15.7,13.31a.75.75,0,1,0,.75-.75h0A.75.75,0,0,0,15.7,13.31ZM12,14.06a.76.76,0,0,1-.75-.75.75.75,0,0,1,.74-.75h0a.75.75,0,0,1,0,1.5Zm-5.2-.75a.76.76,0,1,0,.76-.75h0A.75.75,0,0,0,6.81,13.31ZM16.45,18a.76.76,0,0,1-.75-.75.74.74,0,0,1,.74-.75h0a.75.75,0,0,1,0,1.5Zm-5.19-.75a.75.75,0,0,0,1.5,0,.74.74,0,0,0-.75-.75h0A.74.74,0,0,0,11.26,17.2ZM7.57,18a.76.76,0,0,1-.76-.75.74.74,0,0,1,.75-.75h0a.75.75,0,0,1,0,1.5ZM20.33,4.31a5.41,5.41,0,0,0-3.54-1.46V2a.75.75,0,0,0-1.5,0v.83H8.72V2a.75.75,0,1,0-1.5,0v.85a5,5,0,0,0-5,5.37v9c0,3.38,2.12,5.48,5.52,5.48h8.46c3.4,0,5.52-2.07,5.52-5.4V8.23A5.41,5.41,0,0,0,20.33,4.31Zm-.08,13c0,2.51-1.43,3.9-4,3.9H7.77c-2.59,0-4-1.41-4-4V10.15h16.5Zm0-8.7H3.75V8.22A3.49,3.49,0,0,1,7.22,4.35v.94a.75.75,0,0,0,1.5,0v-1h6.57v1a.75.75,0,0,0,1.5,0V4.35a3.87,3.87,0,0,1,2.47,1,3.87,3.87,0,0,1,1,2.85Z"/></svg>