<svg width="24" height="24" viewBox="0 0 24 24" fill="none" xmlns="http://www.w3.org/2000/svg">
<g id="Iconly/Light-Outline/Camera">
<g id="Camera">
<path id="Stroke 1" fill-rule="evenodd" clip-rule="evenodd" d="M7.19382 4.8317C7.59577 4.10118 8.03303 3.61283 8.68188 3.35457C9.87089 2.88179 14.1293 2.88179 15.3174 3.35467C15.9659 3.61278 16.4033 4.10105 16.8055 4.83142L17.2578 5.69857C17.2681 5.71576 17.2776 5.73086 17.2862 5.74387L17.3246 5.79637C17.5306 6.02088 17.8754 6.1565 18.103 6.1565C20.255 6.1565 22 7.90109 22 10.0525V15.8475C22 18.5917 19.7742 20.8175 17.03 20.8175H6.97C4.2251 20.8175 2 18.592 2 15.8475V10.0525C2 7.90109 3.74498 6.1565 5.897 6.1565C6.12377 6.1565 6.46908 6.02068 6.67544 5.79637C6.67956 5.79188 6.68494 5.78519 6.69145 5.77634L6.74287 5.69745L7.19382 4.8317ZM15.4917 5.55508C15.2417 5.10124 15.0158 4.84909 14.7626 4.74833L14.6433 4.70867C13.6142 4.41778 10.0344 4.431 9.23635 4.74833C8.98334 4.84904 8.75768 5.10105 8.50802 5.5548L8.12316 6.2989L8.02843 6.47033C7.94936 6.60186 7.87026 6.71289 7.77995 6.81129C7.27349 7.36179 6.52425 7.6565 5.897 7.6565L5.7329 7.66203C4.48575 7.74636 3.5 8.78472 3.5 10.0525V15.8475C3.5 17.7637 5.05359 19.3175 6.97 19.3175H17.03C18.9458 19.3175 20.5 17.7633 20.5 15.8475V10.0525C20.5 8.7296 19.4267 7.6565 18.103 7.6565L17.9289 7.64922C17.3403 7.60079 16.6793 7.31166 16.2194 6.81063C16.1303 6.71353 16.0517 6.60329 15.9731 6.47287C15.9618 6.45416 15.9478 6.42953 15.9317 6.40039L15.8156 6.18264L15.4917 5.55508Z" fill="#575768"/>
<path id="Stroke 13" d="M17.5041 8.5C18.0564 8.5 18.5041 8.94772 18.5041 9.5C18.5041 10.0128 18.1181 10.4355 17.6207 10.4933L17.5041 10.5C16.9428 10.5 16.4951 10.0523 16.4951 9.5C16.4951 8.98716 16.8812 8.56449 17.3785 8.50673L17.5041 8.5Z" fill="#575768"/>
<path id="Stroke 5" fill-rule="evenodd" clip-rule="evenodd" d="M8.0708 13.1282C8.0708 10.958 9.82959 9.19922 11.9998 9.19922C14.17 9.19922 15.9288 10.958 15.9288 13.1282C15.9288 15.2984 14.17 17.0572 11.9998 17.0572C9.82959 17.0572 8.0708 15.2984 8.0708 13.1282ZM14.4288 13.1282C14.4288 11.7864 13.3416 10.6992 11.9998 10.6992C10.658 10.6992 9.5708 11.7864 9.5708 13.1282C9.5708 14.47 10.658 15.5572 11.9998 15.5572C13.3416 15.5572 14.4288 14.47 14.4288 13.1282Z" fill="#575768"/>
</g>
</g>
</svg>
