<svg id="Capa_1" data-name="Capa 1" xmlns="http://www.w3.org/2000/svg" viewBox="0 0 24 24"><defs><style>.cls-1{fill:#e7446c;}</style></defs><title>calendar</title><path class="cls-1" d="M12.76,11.13a.87.87,0,0,1,.17.51.51.51,0,0,0,.15.37.52.52,0,0,0,.73,0,.51.51,0,0,0,.15-.37,1.91,1.91,0,0,0-1.44-1.85V9.31A.53.53,0,0,0,12.37,9,.52.52,0,0,0,12,8.79a.5.5,0,0,0-.36.16.49.49,0,0,0-.15.36v.48a1.91,1.91,0,0,0-1.44,1.85v.15a1.91,1.91,0,0,0,1.44,1.85v1.8a.92.92,0,0,1-.25-.23.64.64,0,0,1-.08-.14.8.8,0,0,1-.08-.37.51.51,0,0,0-.15-.36.52.52,0,0,0-.37-.16.48.48,0,0,0-.36.16.48.48,0,0,0-.15.36,1.87,1.87,0,0,0,.44,1.22,1.93,1.93,0,0,0,1,.63V17a.48.48,0,0,0,.15.36.5.5,0,0,0,.36.16.52.52,0,0,0,.37-.16.51.51,0,0,0,.15-.36v-.48A1.91,1.91,0,0,0,14,14.7v-.15a1.89,1.89,0,0,0-.44-1.22,1.79,1.79,0,0,0-1-.62V10.9A.88.88,0,0,1,12.76,11.13Zm-1.27,1.4a.76.76,0,0,1-.24-.23.79.79,0,0,1-.16-.51v-.15a.79.79,0,0,1,.16-.51.76.76,0,0,1,.24-.23ZM12.76,14a.86.86,0,0,1,.16.51v.15a.84.84,0,0,1-.16.51,1,1,0,0,1-.24.23V13.82A.83.83,0,0,1,12.76,14Z"/><path class="cls-1" d="M19.63,3.23H4.38A3.09,3.09,0,0,0,4.11,9.4V16a4.74,4.74,0,0,0,4.75,4.75h6.29A4.75,4.75,0,0,0,19.9,16V9.4a3.09,3.09,0,0,0-.27-6.17ZM18.4,16a3.25,3.25,0,0,1-3.25,3.25H8.86A3.24,3.24,0,0,1,5.61,16V7.32a.25.25,0,0,1,.25-.25H18.15a.25.25,0,0,1,.25.25Zm1.5-8.13V7.32a1.75,1.75,0,0,0-1.75-1.75H5.86A1.75,1.75,0,0,0,4.11,7.32v.57a1.59,1.59,0,0,1,.27-3.16H19.63a1.59,1.59,0,0,1,.27,3.16Z"/></svg>