<svg id="Capa_1" data-name="Capa 1" xmlns="http://www.w3.org/2000/svg" viewBox="0 0 24 24"><defs><style>.cls-1{fill:#e7446c;}</style></defs><title>Icons</title><path class="cls-1" d="M11.34,16.71a.7.7,0,1,0,1.39,0V7.27a.7.7,0,0,0-1.39,0ZM7,16.71a.7.7,0,1,0,1.39,0V10.33a.7.7,0,1,0-1.39,0Zm9.31.7a.7.7,0,0,1-.7-.7v-3a.7.7,0,1,1,1.39,0v3A.7.7,0,0,1,16.31,17.41ZM7.64,22h8.72C19.73,22,22,19.63,22,16.11V7.89C22,4.37,19.73,2,16.36,2H7.64C4.27,2,2,4.37,2,7.89v8.22C2,19.63,4.27,22,7.64,22ZM3.4,7.89C3.4,5.16,5.06,3.4,7.64,3.4h8.72c2.58,0,4.24,1.76,4.24,4.49v8.22c0,2.73-1.66,4.49-4.24,4.49H7.64c-2.58,0-4.24-1.76-4.24-4.49Z"/></svg>