<svg id="Capa_1" data-name="Capa 1" xmlns="http://www.w3.org/2000/svg" viewBox="0 0 24 24"><defs><style>.cls-1{fill:#3b3a45;}</style></defs><title>chat</title><path class="cls-1" d="M18.22,9.85a6.93,6.93,0,0,0-2.55-4.62,8.86,8.86,0,0,0-5.29-2A9,9,0,0,0,4.9,4.8a7.11,7.11,0,0,0-3,4.39,6.52,6.52,0,0,0,.85,4.75l-1,2.81a1.18,1.18,0,0,0,0,.2,1.12,1.12,0,0,0,0,.27.85.85,0,0,0,.16.28.76.76,0,0,0,.25.18.77.77,0,0,0,.26.07.71.71,0,0,0,.21,0L6.33,17a9.23,9.23,0,0,0,5.45.59,8.4,8.4,0,0,0,4.84-2.75A6.6,6.6,0,0,0,18.22,9.85Zm-6.73,6.24a7.83,7.83,0,0,1-4.76-.58.75.75,0,0,0-.47-.06L3.64,16l.65-1.92a.75.75,0,0,0-.09-.67,5.09,5.09,0,0,1-.84-3.92A5.68,5.68,0,0,1,5.76,6a7.53,7.53,0,0,1,4.56-1.27,7.37,7.37,0,0,1,4.4,1.62,5.49,5.49,0,0,1,2,3.62,5.14,5.14,0,0,1-1.25,3.84A6.89,6.89,0,0,1,11.49,16.09Zm2-6.84a.76.76,0,0,1-.75.75H7.25a.75.75,0,0,1,0-1.5h5.5A.76.76,0,0,1,13.5,9.25Zm-1,3a.76.76,0,0,1-.75.75H7.25a.75.75,0,0,1,0-1.5h4.5A.76.76,0,0,1,12.5,12.25Zm9.72,7.52a.77.77,0,0,1-.17.74.73.73,0,0,1-.71.22L19,20.21a6,6,0,0,1-3.69.4,5.84,5.84,0,0,1-2.26-1,.75.75,0,0,1,.88-1.21,4.32,4.32,0,0,0,1.68.74,4.47,4.47,0,0,0,3-.39.75.75,0,0,1,.51-.06l1.31.29-.32-1a.74.74,0,0,1,.08-.63,3.66,3.66,0,0,0,.53-2.67,3.85,3.85,0,0,0-1.21-2.1.75.75,0,0,1,1-1.12,5.36,5.36,0,0,1,1.67,2.94,5.11,5.11,0,0,1-.55,3.45Z"/></svg>