<svg width="25" height="25" viewBox="0 0 25 25" fill="none" xmlns="http://www.w3.org/2000/svg">
<path d="M8.29443 17.643C8.00169 17.3502 8.00169 16.8751 8.29443 16.5823L11.9315 12.9453L8.29439 9.30818C8.00164 9.01544 8.00164 8.54026 8.29439 8.24752C8.58713 7.95478 9.0623 7.95478 9.35505 8.24752L12.9921 11.8846L16.6292 8.24751C16.922 7.95477 17.3972 7.95477 17.6899 8.24751C17.9826 8.54025 17.9826 9.01543 17.6899 9.30817L14.0528 12.9453L17.6898 16.5823C17.9826 16.8751 17.9826 17.3502 17.6898 17.643C17.3971 17.9357 16.9219 17.9357 16.6292 17.643L12.9921 14.0059L9.35509 17.643C9.06235 17.9357 8.58717 17.9357 8.29443 17.643Z" fill="#3B3A45"/>
</svg>
