<svg width="16" height="16" viewBox="0 0 16 16" fill="none" xmlns="http://www.w3.org/2000/svg">
<path d="M13.1347 3.87406C13.33 3.6788 13.33 3.36222 13.1347 3.16696C12.9394 2.97169 12.6229 2.97169 12.4276 3.16695L8.11876 7.47578L3.8516 3.20863C3.65634 3.01337 3.33976 3.01337 3.14449 3.20863C2.94923 3.40389 2.94923 3.72048 3.14449 3.91574L7.41165 8.18289L3.18484 12.4097C2.98958 12.6049 2.98958 12.9215 3.18484 13.1168C3.3801 13.3121 3.69669 13.3121 3.89195 13.1168L8.11876 8.88999L12.3456 13.1168C12.5408 13.312 12.8574 13.312 13.0527 13.1168C13.2479 12.9215 13.2479 12.6049 13.0527 12.4097L8.82587 8.18289L13.1347 3.87406Z" fill="#B10F36"/>
</svg>
