<svg id="Capa_1" data-name="Capa 1" xmlns="http://www.w3.org/2000/svg" viewBox="0 0 24 24"><defs><style>.cls-1{fill:#e7446c;}</style></defs><title>Icons</title><path class="cls-1" d="M12,2A10,10,0,1,0,22,12,10,10,0,0,0,12,2Zm0,18.5A8.5,8.5,0,1,1,20.5,12,8.51,8.51,0,0,1,12,20.5Zm2.79-8A2.32,2.32,0,0,1,15.2,14a2.71,2.71,0,0,1-.68,1.85,3,3,0,0,1-1.62.91v.63a.9.9,0,0,1-.21.6.74.74,0,0,1-1.13,0,.85.85,0,0,1-.21-.6v-.6a4.86,4.86,0,0,1-1.12-.29,3.68,3.68,0,0,1-1.1-.67.75.75,0,0,1-.26-.33A1.16,1.16,0,0,1,8.8,15,1,1,0,0,1,9,14.45H9a.61.61,0,0,1,.49-.28.72.72,0,0,1,.29.06,2.14,2.14,0,0,1,.28.16h0a3.61,3.61,0,0,0,1,.54,2.94,2.94,0,0,0,1,.16,1.6,1.6,0,0,0,1-.28h0a1,1,0,0,0,.34-.8.62.62,0,0,0-.17-.46,1.25,1.25,0,0,0-.49-.31h0c-.22-.09-.52-.19-.92-.31a9.23,9.23,0,0,1-1.4-.49h0a2.75,2.75,0,0,1-1-.82A2.44,2.44,0,0,1,9,10.11a2.71,2.71,0,0,1,.7-1.88,3.07,3.07,0,0,1,1.66-.94V6.66a.89.89,0,0,1,.2-.6.75.75,0,0,1,1.14,0,.89.89,0,0,1,.2.6v.62a3.63,3.63,0,0,1,1.89,1A.91.91,0,0,1,15.1,9a1,1,0,0,1-.18.58.58.58,0,0,1-.49.29.66.66,0,0,1-.28-.05h0a1.54,1.54,0,0,1-.29-.17h0A3.39,3.39,0,0,0,13,9.09h0a2.11,2.11,0,0,0-.89-.17,1.49,1.49,0,0,0-1,.3h0a.94.94,0,0,0-.34.8.81.81,0,0,0,.18.55,1.47,1.47,0,0,0,.52.34c.23.09.55.19,1,.31a8.54,8.54,0,0,1,1.37.48A2.5,2.5,0,0,1,14.79,12.51Z"/></svg>