<svg id="Capa_1" data-name="Capa 1" xmlns="http://www.w3.org/2000/svg" viewBox="0 0 24 24"><defs><style>.cls-1{fill:#3b3a45;}</style></defs><title>calendar</title><path class="cls-1" d="M21.85,7.63v5a4.54,4.54,0,0,1-2.7,4.14V15a3,3,0,0,0,1.2-2.41V7.93L15.71,3.1H10.37A3.1,3.1,0,0,0,7.59,4.87H6A4.6,4.6,0,0,1,10.37,1.6H16a.73.73,0,0,1,.54.23l5.07,5.28A.78.78,0,0,1,21.85,7.63ZM18,11.39a.77.77,0,0,1,.2.52v6a4.53,4.53,0,0,1-4.47,4.53H6.55a4.48,4.48,0,0,1-4.4-4.54v-7.5A4.6,4.6,0,0,1,6.72,5.88h5.67a.74.74,0,0,1,.54.23ZM12.88,9.53a1.82,1.82,0,0,0,1.82,1.82h1.18l-3-3.13Zm3.82,3.32h-2a3.32,3.32,0,0,1-3.32-3.32V7.38H6.73a3.09,3.09,0,0,0-3.08,3v7.49a3,3,0,0,0,2.92,3h7.16a3,3,0,0,0,3-3Z"/></svg>