<svg id="Capa_1" data-name="Capa 1" xmlns="http://www.w3.org/2000/svg" viewBox="0 0 24 24"><defs><style>.cls-1{fill:#575768;}</style></defs><title>credi</title><path class="cls-1" d="M13.69,3.52H6.92A4.5,4.5,0,0,0,2.42,8V11.9a4.54,4.54,0,0,0,.7,2.42v2.23A6,6,0,0,1,.92,11.9V8a6,6,0,0,1,6-6h6.77A6,6,0,0,1,19,5.18a5.37,5.37,0,0,0-.7,0H17.14A4.47,4.47,0,0,0,13.69,3.52Zm-1.1,12.83H9a.75.75,0,0,0,0,1.5h3.56a.75.75,0,0,0,0-1.5Zm0,0H9a.75.75,0,0,0,0,1.5h3.56a.75.75,0,0,0,0-1.5Zm0,0H9a.75.75,0,0,0,0,1.5h3.56a.75.75,0,0,0,0-1.5ZM17.08,6.1H10.31a6,6,0,0,0-6,6V16a6,6,0,0,0,6,6h6.77a6,6,0,0,0,6-6V12.1A6,6,0,0,0,17.08,6.1ZM21.58,16a4.49,4.49,0,0,1-4.5,4.5H10.31A4.5,4.5,0,0,1,5.81,16V13.62H21.58Zm0-3.86H5.81v0a4.51,4.51,0,0,1,4.5-4.5h6.77a4.5,4.5,0,0,1,4.5,4.5ZM9,17.85h3.56a.75.75,0,0,0,0-1.5H9a.75.75,0,0,0,0,1.5Zm3.56-1.5H9a.75.75,0,0,0,0,1.5h3.56a.75.75,0,0,0,0-1.5Z"/></svg>