<svg width="25" height="24" viewBox="0 0 25 24" fill="none" xmlns="http://www.w3.org/2000/svg">
<path fill-rule="evenodd" clip-rule="evenodd" d="M21.1961 10.4707H15.9234C14.9569 10.4707 14.1734 9.68718 14.1734 8.72068V3.44796C14.1734 2.5136 14.9559 1.62643 16.0226 1.77274C19.5746 2.25988 22.3842 5.06943 22.8713 8.6214C23.0176 9.68817 22.1304 10.4707 21.1961 10.4707ZM15.9234 8.97069H21.1961C21.2685 8.97069 21.3244 8.94111 21.3559 8.90829C21.3829 8.88006 21.3893 8.8552 21.3852 8.82522C20.9895 5.9399 18.7041 3.65454 15.8188 3.25883C15.7888 3.25471 15.764 3.2611 15.7358 3.28814C15.7029 3.3196 15.6734 3.37559 15.6734 3.44796V8.72068C15.6734 8.85876 15.7853 8.97069 15.9234 8.97069ZM11.6963 5.24315C7.41608 5.24315 3.94629 8.71294 3.94629 12.9931C3.94629 17.2734 7.41608 20.7431 11.6963 20.7431C15.9765 20.7431 19.4463 17.2734 19.4463 12.9931C19.4463 12.9003 19.4447 12.8079 19.4414 12.7159C19.4269 12.3019 19.7507 11.9546 20.1647 11.94C20.5786 11.9255 20.926 12.2493 20.9405 12.6633C20.9444 12.7728 20.9463 12.8828 20.9463 12.9931C20.9463 18.1018 16.8049 22.2431 11.6963 22.2431C6.58766 22.2431 2.44629 18.1018 2.44629 12.9931C2.44629 7.88451 6.58766 3.74315 11.6963 3.74315C11.787 3.74315 11.8775 3.74446 11.9676 3.74706C12.3817 3.759 12.7076 4.10433 12.6957 4.51837C12.6837 4.93241 12.3384 5.25838 11.9244 5.24643C11.8486 5.24425 11.7726 5.24315 11.6963 5.24315ZM11.1805 16.37C10.7907 16.2749 10.4402 16.0566 10.1809 15.7458C9.89552 15.4036 9.73889 14.9711 9.73828 14.5243C9.73828 14.3871 9.79228 14.255 9.8888 14.1576C9.98538 14.0601 10.1166 14.0051 10.2538 14.0051C10.3909 14.0051 10.5222 14.0601 10.6188 14.1576C10.7153 14.255 10.7693 14.3868 10.7693 14.524C10.7695 14.6518 10.7977 14.7772 10.8512 14.8915C10.8746 14.9416 10.9028 14.9895 10.9356 15.0345C11.0023 15.126 11.0856 15.2027 11.1805 15.2608V13.4588C10.7916 13.3632 10.4422 13.1445 10.1843 12.8335C9.90055 12.4911 9.74586 12.0588 9.74725 11.6129V11.4627C9.74586 11.0168 9.90055 10.5845 10.1843 10.2421C10.4422 9.93105 10.7916 9.71237 11.1805 9.61683V9.1361C11.1805 8.99889 11.2345 8.86704 11.331 8.76963C11.4276 8.67217 11.5589 8.61717 11.696 8.61717C11.8332 8.61717 11.9644 8.67217 12.061 8.76963C12.1575 8.86704 12.2115 8.99889 12.2115 9.1361V9.61665C12.6013 9.71172 12.9518 9.92996 13.2111 10.2408C13.4965 10.583 13.6531 11.0154 13.6537 11.4623C13.6537 11.5995 13.5997 11.7315 13.5032 11.8289C13.4066 11.9264 13.2754 11.9814 13.1382 11.9814C13.0011 11.9814 12.8698 11.9264 12.7732 11.8289C12.6768 11.7316 12.6228 11.5998 12.6227 11.4627C12.6225 11.2788 12.5641 11.0999 12.4564 10.952C12.3897 10.8606 12.3064 10.7839 12.2115 10.7258V12.5278C12.6004 12.6234 12.9498 12.8421 13.2077 13.1531C13.4915 13.4955 13.6462 13.9278 13.6448 14.3737V14.5239C13.6462 14.9698 13.4915 15.4021 13.2077 15.7444C12.9498 16.0555 12.6004 16.2742 12.2115 16.3698V16.8505C12.2115 16.9877 12.1575 17.1196 12.061 17.217C11.9644 17.3144 11.8332 17.3694 11.696 17.3694C11.5589 17.3694 11.4276 17.3144 11.331 17.217C11.2345 17.1196 11.1805 16.9877 11.1805 16.8505V16.37ZM10.7783 11.6142C10.7769 11.7971 10.8336 11.9755 10.9399 12.1233C11.0052 12.2141 11.0871 12.2904 11.1805 12.3486V10.727C11.0871 10.7852 11.0052 10.8615 10.9399 10.9523C10.8336 11.1001 10.7769 11.2785 10.7783 11.4614V11.6142ZM12.6138 14.3724C12.6151 14.1895 12.5584 14.0111 12.4521 13.8633C12.3868 13.7725 12.3049 13.6962 12.2115 13.638V15.2596C12.3049 15.2014 12.3868 15.1251 12.4521 15.0343C12.5584 14.8865 12.6151 14.7081 12.6138 14.5251V14.3724Z" fill="#C52D52"/>
</svg>
