<svg width="24" height="24" viewBox="0 0 24 24" fill="none" xmlns="http://www.w3.org/2000/svg">
<path d="M6.75 9.5H17.899C18.313 9.5 18.649 9.164 18.649 8.75C18.649 8.336 18.313 8 17.899 8H6.75C6.336 8 6 8.336 6 8.75C6 9.164 6.336 9.5 6.75 9.5Z" fill="#E7446C"/>
<path d="M17.899 12.9619H6.75C6.336 12.9619 6 12.6259 6 12.2119C6 11.7979 6.336 11.4619 6.75 11.4619H17.899C18.313 11.4619 18.649 11.7979 18.649 12.2119C18.649 12.6259 18.313 12.9619 17.899 12.9619Z" fill="#E7446C"/>
<path d="M6.75 16.4238H17.899C18.313 16.4238 18.649 16.0878 18.649 15.6738C18.649 15.2598 18.313 14.9238 17.899 14.9238H6.75C6.336 14.9238 6 15.2598 6 15.6738C6 16.0878 6.336 16.4238 6.75 16.4238Z" fill="#E7446C"/>
<path fill-rule="evenodd" clip-rule="evenodd" d="M7.99751 22.173H16.6415C19.9485 22.173 22.6385 19.482 22.6385 16.175V8.998C22.6385 5.69 19.9485 3 16.6415 3H7.99751C4.69051 3 1.99951 5.69 1.99951 8.998V16.175C1.99951 19.482 4.69051 22.173 7.99751 22.173ZM3.49951 8.998C3.49951 6.518 5.51751 4.5 7.99751 4.5H16.6415C19.1215 4.5 21.1385 6.518 21.1385 8.998V16.175C21.1385 18.655 19.1215 20.673 16.6415 20.673H7.99751C5.51751 20.673 3.49951 18.655 3.49951 16.175V8.998Z" fill="#E7446C"/>
</svg>
