<svg id="Capa_1" data-name="Capa 1" xmlns="http://www.w3.org/2000/svg" viewBox="0 0 24 24"><defs><style>.cls-1{fill:#3b3a45;}</style></defs><title>edit</title><path class="cls-1" d="M19.35,6.3a2.8,2.8,0,0,0-1.26-1.78L16.37,3.18a3,3,0,0,0-4.16.41s0,0,0,0h0L2.77,15.38a2.41,2.41,0,0,0-.46,2l.82,3.47a.76.76,0,0,0,.73.58h0l3.64,0a2.46,2.46,0,0,0,1.89-.91L17,11l.08-.09.05-.07C19,8.55,19,8.53,19,8.5A2.84,2.84,0,0,0,19.35,6.3ZM8.23,19.57a1,1,0,0,1-.74.35l-3,0-.69-2.88A.88.88,0,0,1,4,16.32l7.2-9,4.25,3.27ZM17.75,7.65,16.34,9.42,12.08,6.15l1.28-1.6a1.49,1.49,0,0,1,2.07-.19l1.81,1.4a1.38,1.38,0,0,1,.65.88A1.33,1.33,0,0,1,17.75,7.65ZM21,21.47H13.75a.75.75,0,0,1,0-1.5H21a.75.75,0,0,1,0,1.5Z"/></svg>