<svg width="24" height="24" viewBox="0 0 24 24" fill="none" xmlns="http://www.w3.org/2000/svg">
<path fill-rule="evenodd" clip-rule="evenodd" d="M11.9491 11.1774C11.9491 10.7341 12.2221 10.2551 12.7891 9.95927C13.1778 9.7565 13.3284 9.27708 13.1257 8.88846C12.9229 8.49983 12.4435 8.34918 12.0549 8.55191C11.0487 9.07687 10.3617 10.0524 10.3617 11.1774V13.0555C10.3617 13.4938 10.7171 13.8492 11.1554 13.8492C11.5937 13.8492 11.9491 13.4938 11.9491 13.0555V11.1774Z" fill="#C52D52"/>
<path fill-rule="evenodd" clip-rule="evenodd" d="M8.20004 2.3399C4.96355 2.3399 2.33984 4.96361 2.33984 8.2001V9.67783C2.33984 10.1162 2.69519 10.4715 3.13353 10.4715C3.57186 10.4715 3.92721 10.1162 3.92721 9.67783V8.2001C3.92721 5.84029 5.84022 3.92727 8.20004 3.92727H9.67777C10.1161 3.92727 10.4715 3.57193 10.4715 3.13359C10.4715 2.69525 10.1161 2.3399 9.67777 2.3399H8.20004Z" fill="#C52D52"/>
<path fill-rule="evenodd" clip-rule="evenodd" d="M14.3219 3.88333H15.7996C18.1837 3.88333 20.1164 5.81604 20.1164 8.20014V9.67787C20.1164 10.0919 20.4521 10.4276 20.8661 10.4276C21.2802 10.4276 21.6158 10.0919 21.6158 9.67787V8.20014C21.6158 4.98792 19.0118 2.38393 15.7996 2.38393H14.3219C13.9078 2.38393 13.5722 2.71958 13.5722 3.13363C13.5722 3.54768 13.9078 3.88333 14.3219 3.88333Z" fill="#C52D52"/>
<path fill-rule="evenodd" clip-rule="evenodd" d="M8.78242 9.25559C8.78242 8.81725 8.42707 8.46191 7.98874 8.46191C7.5504 8.46191 7.19505 8.81725 7.19505 9.25559L7.19505 10.9444C7.19505 11.3828 7.5504 11.7381 7.98874 11.7381C8.42707 11.7381 8.78242 11.3828 8.78242 10.9444V9.25559Z" fill="#C52D52"/>
<path fill-rule="evenodd" clip-rule="evenodd" d="M14.7743 14.8486C12.8533 15.5922 10.724 15.5922 8.80307 14.8486C8.3943 14.6904 7.93463 14.8934 7.77639 15.3022C7.61817 15.711 7.82124 16.1707 8.23003 16.3289C10.5197 17.2152 13.0577 17.2152 15.3473 16.3289C15.7561 16.1707 15.9592 15.711 15.801 15.3022C15.6427 14.8934 15.183 14.6904 14.7743 14.8486Z" fill="#C52D52"/>
<path fill-rule="evenodd" clip-rule="evenodd" d="M16.3823 9.25559C16.3823 8.81725 16.027 8.46191 15.5886 8.46191C15.1503 8.46191 14.7949 8.81725 14.7949 9.25559V10.9444C14.7949 11.3828 15.1503 11.7381 15.5886 11.7381C16.027 11.7381 16.3823 11.3828 16.3823 10.9444V9.25559Z" fill="#C52D52"/>
<path fill-rule="evenodd" clip-rule="evenodd" d="M3.92721 14.3221C3.92721 13.8838 3.57186 13.5284 3.13353 13.5284C2.69519 13.5284 2.33984 13.8838 2.33984 14.3221V15.7998C2.33984 19.0363 4.96355 21.66 8.20004 21.66H9.67777C10.1161 21.66 10.4715 21.3047 10.4715 20.8664C10.4715 20.428 10.1161 20.0727 9.67777 20.0727H8.20004C5.84022 20.0727 3.92721 18.1597 3.92721 15.7998V14.3221Z" fill="#C52D52"/>
<path fill-rule="evenodd" clip-rule="evenodd" d="M21.66 14.3221C21.66 13.8838 21.3046 13.5284 20.8663 13.5284C20.428 13.5284 20.0726 13.8838 20.0726 14.3221V15.7998C20.0726 18.1597 18.1596 20.0727 15.7998 20.0727H14.322C13.8837 20.0727 13.5284 20.428 13.5284 20.8664C13.5284 21.3047 13.8837 21.66 14.322 21.66H15.7998C19.0363 21.66 21.66 19.0363 21.66 15.7998V14.3221Z" fill="#C52D52"/>
</svg>
