<svg width="16" height="16" viewBox="0 0 16 16" fill="none" xmlns="http://www.w3.org/2000/svg">
<path fill-rule="evenodd" clip-rule="evenodd" d="M4.07533 4.33301C3.48267 4.33301 3 4.81034 3 5.39767C3 5.98434 3.48267 6.46101 4.07533 6.46101C4.66867 6.46101 5.15067 5.98434 5.15067 5.39767C5.15067 4.81034 4.66867 4.33301 4.07533 4.33301ZM4.07533 7.46101C2.93133 7.46101 2 6.53567 2 5.39767C2 4.25967 2.93133 3.33301 4.07533 3.33301C5.22 3.33301 6.15067 4.25967 6.15067 5.39767C6.15067 6.53567 5.22 7.46101 4.07533 7.46101ZM8.59408 5.93327H12.7941C13.0701 5.93327 13.2941 5.70927 13.2941 5.43327C13.2941 5.15727 13.0701 4.93327 12.7941 4.93327L8.59408 4.93327C8.31808 4.93327 8.09408 5.15727 8.09408 5.43327C8.09408 5.70927 8.31808 5.93327 8.59408 5.93327ZM2.51955 12.3949H6.72022C6.99622 12.3949 7.22022 12.1709 7.22022 11.8949C7.22022 11.6189 6.99622 11.3949 6.72022 11.3949H2.51955C2.24355 11.3949 2.01955 11.6189 2.01955 11.8949C2.01955 12.1709 2.24355 12.3949 2.51955 12.3949ZM10.516 11.869C10.516 11.2823 10.9986 10.805 11.5919 10.805C12.1846 10.805 12.6666 11.2823 12.6666 11.869C12.6666 12.4563 12.1846 12.933 11.5919 12.933C10.9986 12.933 10.516 12.4563 10.516 11.869ZM9.51595 11.869C9.51595 13.007 10.4473 13.933 11.592 13.933C12.736 13.933 13.6666 13.007 13.6666 11.869C13.6666 10.731 12.736 9.80501 11.592 9.80501C10.4473 9.80501 9.51595 10.731 9.51595 11.869Z" fill="#3B3A45"/>
</svg>
