<svg id="Capa_1" data-name="Capa 1" xmlns="http://www.w3.org/2000/svg" viewBox="0 0 24 24"><defs><style>.cls-1{fill:#3b3a45;}</style></defs><title>flag</title><path class="cls-1" d="M19.05,4a.78.78,0,0,0-.39-.58l-.09,0a.85.85,0,0,0-.32,0h-.12l-.1,0a.68.68,0,0,0-.31.22A4.17,4.17,0,0,1,15,5.15a4.13,4.13,0,0,1-3-.84,5.65,5.65,0,0,0-7.86.93.75.75,0,0,0-.15.57l1,8.74v0l.8,6.81a.74.74,0,0,0,.83.65.75.75,0,0,0,.66-.83l-.77-6.49a4.16,4.16,0,0,1,5.58-.45,5.65,5.65,0,0,0,7.85-.92.1.1,0,0,0,0-.05.76.76,0,0,0,.09-.18.73.73,0,0,0,0-.33ZM16,13.92a4.22,4.22,0,0,1-3-.84,5.63,5.63,0,0,0-4.11-1.15,5.7,5.7,0,0,0-2.59,1L5.45,6A4.16,4.16,0,0,1,11,5.5a5.67,5.67,0,0,0,4.11,1.14,5.68,5.68,0,0,0,2.59-1l.82,7A4.21,4.21,0,0,1,16,13.92Z"/></svg>