<svg width="24" height="24" viewBox="0 0 24 24" fill="none" xmlns="http://www.w3.org/2000/svg">
<path fill-rule="evenodd" clip-rule="evenodd" d="M11.326 4.07158C10.5667 3.31298 8.42717 3.19196 6.16322 3.65757C4.24101 4.05195 3.14014 5.74857 3.14014 7.94866V14.0144C3.14014 17.3111 4.04451 18.8216 5.39616 19.608C6.11453 20.0259 7.02466 20.2802 8.14642 20.425C9.26793 20.5697 10.5525 20.5996 12.0001 20.5996C14.9385 20.5996 17.1289 20.4481 18.6016 19.5837C19.9575 18.788 20.8601 17.2736 20.8601 14.0144V14.0082C20.8601 13.1071 20.8601 12.0267 20.665 10.9521C20.4698 9.87784 20.0898 8.87339 19.3751 8.10231C18.7939 7.47523 18.0572 7.36227 17.0794 7.36354C16.9394 7.36372 16.7865 7.36659 16.6271 7.36958C16.2762 7.37618 15.8939 7.38336 15.55 7.3637C15.0254 7.33371 14.3186 7.26928 13.9194 6.9387M12.0381 2.75134C10.336 1.83316 8.3392 1.67871 5.8614 2.18825L12.0381 2.75134ZM12.0381 2.75134C12.9849 3.26188 13.3416 3.92766 13.6241 4.45507L13.6319 4.46962C13.8911 4.9536 14.0854 5.30752 14.6609 5.63481C14.9012 5.7715 15.212 5.84193 15.6356 5.86614C15.9243 5.88265 16.2047 5.8771 16.5192 5.87087C16.6926 5.86744 16.8763 5.8638 17.0774 5.86354C18.1275 5.86218 19.4384 5.964 20.4752 7.08264C21.4545 8.13917 21.9169 9.45138 22.1408 10.684C22.3603 11.8925 22.3602 13.0859 22.3601 13.9678L22.3601 14.0144C22.3601 17.5514 21.3592 19.7046 19.3609 20.8774C17.4794 21.9816 14.8647 22.0996 12.0001 22.0996C10.5463 22.0996 9.17884 22.0707 7.95444 21.9127C6.7303 21.7547 5.60061 21.4623 4.64186 20.9045C2.63926 19.7395 1.64014 17.5824 1.64014 14.0144V7.94866C1.64014 5.26504 3.03983 2.76733 5.8614 2.18825M6.44584 14.7246C6.44584 14.3103 6.78162 13.9746 7.19584 13.9746H16.7888C17.2031 13.9746 17.5388 14.3103 17.5388 14.7246C17.5388 15.1388 17.2031 15.4746 16.7888 15.4746H7.19584C6.78162 15.4746 6.44584 15.1388 6.44584 14.7246Z" fill="#3B3A45"/>
<path fill-rule="evenodd" clip-rule="evenodd" d="M7.19584 13.9746C6.78162 13.9746 6.44584 14.3103 6.44584 14.7246C6.44584 15.1388 6.78162 15.4746 7.19584 15.4746H16.7888C17.2031 15.4746 17.5388 15.1388 17.5388 14.7246C17.5388 14.3103 17.2031 13.9746 16.7888 13.9746H7.19584Z" fill="#3B3A45"/>
<path fill-rule="evenodd" clip-rule="evenodd" d="M5.8614 2.18825C8.3392 1.67871 10.336 1.83316 12.0381 2.75134C12.9849 3.26188 13.3416 3.92766 13.6241 4.45507L13.6319 4.46962C13.8911 4.9536 14.0854 5.30752 14.6609 5.63481C14.9012 5.7715 15.212 5.84193 15.6356 5.86614C15.9243 5.88265 16.2047 5.8771 16.5192 5.87087C16.6926 5.86744 16.8763 5.8638 17.0774 5.86354C18.1275 5.86218 19.4384 5.964 20.4752 7.08264C21.4545 8.13917 21.9169 9.45138 22.1408 10.684C22.3603 11.8925 22.3602 13.0859 22.3601 13.9678L22.3601 14.0144C22.3601 17.5514 21.3592 19.7046 19.3609 20.8774C17.4794 21.9816 14.8647 22.0996 12.0001 22.0996C10.5463 22.0996 9.17884 22.0707 7.95444 21.9127C6.7303 21.7547 5.60061 21.4623 4.64186 20.9045C2.63926 19.7395 1.64014 17.5824 1.64014 14.0144V7.94866C1.64014 5.26504 3.03983 2.76733 5.8614 2.18825ZM11.326 4.07158C10.5667 3.31298 8.42717 3.19196 6.16322 3.65757C4.24101 4.05195 3.14014 5.74857 3.14014 7.94866V14.0144C3.14014 17.3111 4.04451 18.8216 5.39616 19.608C6.11453 20.0259 7.02466 20.2802 8.14642 20.425C9.26793 20.5697 10.5525 20.5996 12.0001 20.5996C14.9385 20.5996 17.1289 20.4481 18.6016 19.5837C19.9575 18.788 20.8601 17.2736 20.8601 14.0144V14.0082C20.8601 13.1071 20.8601 12.0267 20.665 10.9521C20.4698 9.87784 20.0898 8.87339 19.3751 8.10231C18.7939 7.47523 18.0572 7.36227 17.0794 7.36354C16.9394 7.36372 16.7865 7.36659 16.6271 7.36958C16.2762 7.37618 15.8939 7.38336 15.55 7.3637C15.0254 7.33371 14.3186 7.26928 13.9194 6.9387C12.9581 6.26227 12.0854 4.83018 11.326 4.07158ZM7.19584 13.9746C6.78162 13.9746 6.44584 14.3103 6.44584 14.7246C6.44584 15.1388 6.78162 15.4746 7.19584 15.4746H16.7888C17.2031 15.4746 17.5388 15.1388 17.5388 14.7246C17.5388 14.3103 17.2031 13.9746 16.7888 13.9746H7.19584Z" fill="#3B3A45"/>
</svg>
