<svg width="24" height="24" viewBox="0 0 24 24" fill="none" xmlns="http://www.w3.org/2000/svg">
<g id="Iconly/Light-Outline/Scan">
<g id="Scan">
<path id="Fill 3" fill-rule="evenodd" clip-rule="evenodd" d="M20.8799 9.745C20.4659 9.745 20.1299 9.409 20.1299 8.995V7.481C20.1299 5.838 18.7919 4.5 17.1469 4.5H15.9419C15.5279 4.5 15.1919 4.164 15.1919 3.75C15.1919 3.336 15.5279 3 15.9419 3H17.1469C19.6189 3 21.6299 5.011 21.6299 7.481V8.995C21.6299 9.409 21.2939 9.745 20.8799 9.745Z" fill="#575768"/>
<path id="Fill 5" fill-rule="evenodd" clip-rule="evenodd" d="M3.62012 9.745C3.20612 9.745 2.87012 9.409 2.87012 8.995V7.481C2.87012 5.011 4.88112 3 7.35312 3H8.58912C9.00312 3 9.33912 3.336 9.33912 3.75C9.33912 4.164 9.00312 4.5 8.58912 4.5H7.35312C5.70812 4.5 4.37012 5.838 4.37012 7.481V8.995C4.37012 9.409 4.03412 9.745 3.62012 9.745Z" fill="#575768"/>
<path id="Fill 7" fill-rule="evenodd" clip-rule="evenodd" d="M17.1474 21.7606H15.9424C15.5284 21.7606 15.1924 21.4246 15.1924 21.0106C15.1924 20.5966 15.5284 20.2606 15.9424 20.2606H17.1474C18.7924 20.2606 20.1304 18.9226 20.1304 17.2786V13.2036C20.1304 12.7896 20.4664 12.4536 20.8804 12.4536C21.2944 12.4536 21.6304 12.7896 21.6304 13.2036V17.2786C21.6304 19.7496 19.6194 21.7606 17.1474 21.7606Z" fill="#575768"/>
<path id="Fill 9" fill-rule="evenodd" clip-rule="evenodd" d="M8.58912 21.7606H7.35312C4.88112 21.7606 2.87012 19.7496 2.87012 17.2786V13.2036C2.87012 12.7896 3.20612 12.4536 3.62012 12.4536C4.03412 12.4536 4.37012 12.7896 4.37012 13.2036V17.2786C4.37012 18.9226 5.70812 20.2606 7.35312 20.2606H8.58912C9.00312 20.2606 9.33912 20.5966 9.33912 21.0106C9.33912 21.4246 9.00312 21.7606 8.58912 21.7606Z" fill="#575768"/>
</g>
</g>
</svg>
