<svg width="24" height="24" viewBox="0 0 24 24" fill="none" xmlns="http://www.w3.org/2000/svg">
<path fill-rule="evenodd" clip-rule="evenodd" d="M20.422 3.71955C20.7149 4.01244 20.7149 4.48731 20.422 4.78021L7.01227 18.19C6.97295 18.2407 6.92814 18.2851 6.87926 18.323L4.64803 20.5542C4.35514 20.8471 3.88026 20.8471 3.58737 20.5542C3.29448 20.2613 3.29448 19.7864 3.58737 19.4935L5.26082 17.8201C3.31151 16.2898 2 14.1624 2 12.1398C2 10.2034 3.20016 8.1871 4.97454 6.68703C6.76851 5.1704 9.24882 4.08978 12 4.08978C14.0215 4.08978 15.9079 4.67151 17.483 5.59795L19.3614 3.71955C19.6543 3.42665 20.1291 3.42665 20.422 3.71955ZM16.3814 6.69953C15.0921 6.01072 13.5912 5.58978 12 5.58978C9.64118 5.58978 7.49649 6.51916 5.94296 7.83253C4.36983 9.16246 3.5 10.7962 3.5 12.1398C3.5 13.5975 4.53239 15.3988 6.33013 16.7508L8.75829 14.3226C8.32406 13.6827 8.08833 12.9221 8.0907 12.1375C8.08694 9.97923 9.83355 8.22596 11.9929 8.22198M9.85112 13.2298L13.096 9.98496C12.7586 9.81281 12.3822 9.72106 11.9965 9.72198L11.996 9.72198C10.6643 9.72427 9.58765 10.8057 9.5907 12.1363L9.5907 12.1407C9.58932 12.523 9.68022 12.8959 9.85112 13.2298ZM14.1893 8.89164C13.5455 8.4567 12.7814 8.22013 11.993 8.22198L14.1893 8.89164ZM16.3814 6.69953L14.1893 8.89164L16.3814 6.69953ZM19.3853 8.02124C19.7106 7.76477 20.1822 7.82054 20.4386 8.1458C21.3991 9.36383 22.0097 10.7729 22.0097 12.1402C22.0097 14.0773 20.8063 16.0936 19.0297 17.5933C17.2334 19.1096 14.7508 20.1902 11.9997 20.1902C11.0188 20.1902 10.0625 20.0501 9.16964 19.803C8.77043 19.6925 8.53639 19.2793 8.64687 18.8801C8.75736 18.4809 9.17055 18.2469 9.56976 18.3574C10.3389 18.5702 11.1606 18.6902 11.9997 18.6902C14.3586 18.6902 16.506 17.7607 18.0622 16.4471C19.6381 15.1168 20.5097 13.4831 20.5097 12.1402C20.5097 11.2075 20.0823 10.1165 19.2608 9.07456C19.0043 8.74929 19.0601 8.2777 19.3853 8.02124ZM15.2432 11.9611C15.6507 12.0349 15.9213 12.4252 15.8475 12.8327C15.5578 14.432 14.3067 15.6855 12.7078 15.9788C12.3004 16.0535 11.9095 15.7838 11.8348 15.3764C11.7601 14.969 12.0298 14.5781 12.4372 14.5034C13.4223 14.3227 14.1932 13.5501 14.3715 12.5654C14.4453 12.1578 14.8356 11.8873 15.2432 11.9611Z" fill="#3B3A45"/>
</svg>
