<svg id="Capa_1" data-name="Capa 1" xmlns="http://www.w3.org/2000/svg" viewBox="0 0 24 24"><defs><style>.cls-1{fill:#3b3a45;}</style></defs><title>Icons</title><path class="cls-1" d="M13.36,15.29a2,2,0,0,1,2,2v2.86a.43.43,0,0,0,.43.43h1.78a2.52,2.52,0,0,0,2.53-2.49V10a1.58,1.58,0,0,0-.62-1.22L13.39,3.88a2.24,2.24,0,0,0-2.8,0L4.5,8.77A1.56,1.56,0,0,0,3.86,10v8.1A2.52,2.52,0,0,0,6.39,20.6H8.18a.45.45,0,0,0,.46-.44.88.88,0,0,1,0-.16V17.31a2,2,0,0,1,2-2ZM17.61,22H15.82A1.83,1.83,0,0,1,14,20.17V17.31a.63.63,0,0,0-.64-.62H10.68a.63.63,0,0,0-.63.62v2.85a.64.64,0,0,1,0,.2A1.84,1.84,0,0,1,8.18,22H6.39a3.91,3.91,0,0,1-3.92-3.89V10A2.94,2.94,0,0,1,3.64,7.67L9.72,2.8a3.64,3.64,0,0,1,4.53,0l6.13,4.89A2.93,2.93,0,0,1,21.53,10v8.13A3.91,3.91,0,0,1,17.61,22Z"/></svg>