<svg width="24" height="24" viewBox="0 0 24 24" fill="none" xmlns="http://www.w3.org/2000/svg">
<path d="M10.8635 7.62317C10.5706 7.33028 10.0957 7.33028 9.80283 7.62317C9.50994 7.91607 9.50994 8.39094 9.80283 8.68383C10.9773 9.85831 12.8627 9.85831 14.0372 8.68383C14.3301 8.39094 14.3301 7.91607 14.0372 7.62317C13.7443 7.33028 13.2694 7.33028 12.9765 7.62317C12.3878 8.21186 11.4522 8.21186 10.8635 7.62317Z" fill="#3B3A45"/>
<path fill-rule="evenodd" clip-rule="evenodd" d="M11.8889 12.6187H11.9209C14.8489 12.6187 17.2299 10.2377 17.2299 7.30969C17.2299 4.38169 14.8489 1.99969 11.9209 1.99969C8.9919 1.99969 6.6099 4.3817 6.6099 7.30669C6.5999 10.2267 8.9669 12.6097 11.8889 12.6187ZM8.0379 7.30969C8.0379 5.16869 9.7799 3.42769 11.9209 3.42769C14.0609 3.42769 15.8019 5.16869 15.8019 7.30969C15.8019 9.44969 14.0609 11.1917 11.9209 11.1917C9.7889 11.1837 8.0309 9.4437 8.0379 7.30969Z" fill="#3B3A45"/>
<path fill-rule="evenodd" clip-rule="evenodd" d="M4 18.1731C4 21.8701 9.962 21.8701 11.921 21.8701C15.32 21.8701 19.84 21.4891 19.84 18.1931C19.84 14.4961 13.88 14.4961 11.921 14.4961C8.521 14.4961 4 14.8771 4 18.1731ZM5.5 18.1731C5.5 16.7281 7.66 15.9961 11.921 15.9961C16.181 15.9961 18.34 16.7351 18.34 18.1931C18.34 19.6381 16.181 20.3701 11.921 20.3701C7.66 20.3701 5.5 19.6311 5.5 18.1731Z" fill="#3B3A45"/>
</svg>
