<svg width="24" height="24" viewBox="0 0 24 24" fill="none" xmlns="http://www.w3.org/2000/svg">
<path fill-rule="evenodd" clip-rule="evenodd" d="M6.23474 12.0004C6.23474 13.4344 7.40174 14.6024 8.83674 14.6024C10.0113 14.6024 11.0063 13.8199 11.3288 12.7495H13.4315V13.8525C13.4315 14.2665 13.7675 14.6025 14.1815 14.6025C14.5955 14.6025 14.9315 14.2665 14.9315 13.8525V12.7495H16.2597V13.8525C16.2597 14.2665 16.5957 14.6025 17.0097 14.6025C17.4236 14.6025 17.7597 14.2665 17.7597 13.8525V11.9995C17.7597 11.5855 17.4236 11.2495 17.0097 11.2495L11.3284 11.2495C11.0058 10.1803 10.0123 9.39919 8.83674 9.39838C7.40174 9.39838 6.23474 10.5654 6.23474 12.0004ZM7.73474 12.0004C7.73474 11.3924 8.22874 10.8984 8.83874 10.8984C9.44474 10.8994 9.93874 11.3934 9.93874 12.0004C9.93874 12.6084 9.44374 13.1024 8.83674 13.1024C8.22874 13.1024 7.73474 12.6084 7.73474 12.0004Z" fill="#C52D52"/>
<path fill-rule="evenodd" clip-rule="evenodd" d="M7.664 22H16.332C19.723 22 22 19.622 22 16.084V7.916C22 4.378 19.723 2 16.334 2L7.664 2C4.276 2 2 4.378 2 7.916L2 16.084C2 19.622 4.276 22 7.664 22ZM3.5 7.916C3.5 5.233 5.135 3.5 7.664 3.5L16.334 3.5C18.864 3.5 20.5 5.233 20.5 7.916V16.084C20.5 18.767 18.864 20.5 16.332 20.5H7.664C5.135 20.5 3.5 18.767 3.5 16.084L3.5 7.916Z" fill="#C52D52"/>
</svg>
