<svg width="25" height="25" viewBox="0 0 25 25" fill="none" xmlns="http://www.w3.org/2000/svg">
<path fill-rule="evenodd" clip-rule="evenodd" d="M12.6783 7.12134C11.5591 7.12078 10.4648 7.4522 9.534 8.07365C8.60318 8.69511 7.87758 9.57871 7.44902 10.6126C7.02046 11.6465 6.90818 12.7844 7.1264 13.8821C7.34461 14.9797 7.88351 15.9882 8.67492 16.7795C9.46633 17.571 10.4747 18.1099 11.5724 18.3281C12.6702 18.5462 13.8079 18.434 14.8419 18.0054C15.8757 17.5769 16.7594 16.8513 17.3808 15.9205C18.0023 14.9897 18.3337 13.8954 18.3331 12.7762C18.3309 11.2771 17.7344 9.84012 16.6744 8.78005C15.6145 7.72005 14.1774 7.12356 12.6783 7.12134ZM12.6783 16.8178C11.8789 16.8184 11.0972 16.5818 10.4321 16.138C9.76713 15.6943 9.24868 15.0632 8.94235 14.3248C8.63602 13.5863 8.55559 12.7736 8.71121 11.9894C8.86684 11.2053 9.25155 10.4849 9.81666 9.91936C10.3818 9.35384 11.1019 8.96864 11.886 8.81247C12.6701 8.65629 13.4828 8.73618 14.2215 9.04199C14.9601 9.3478 15.5916 9.86579 16.0357 10.5305C16.4799 11.1952 16.717 11.9767 16.717 12.7762C16.7189 13.3079 16.6159 13.8347 16.4137 14.3264C16.2116 14.8182 15.9145 15.2653 15.5393 15.6421C15.1641 16.0188 14.7183 16.3178 14.2273 16.5219C13.7364 16.7262 13.2099 16.8314 12.6783 16.8318V16.8178Z" fill="#3B3A45"/>
<path fill-rule="evenodd" clip-rule="evenodd" d="M12.6794 2.26758C12.5732 2.26758 12.4681 2.28853 12.3701 2.32924C12.272 2.36996 12.183 2.42962 12.1081 2.50482C12.0332 2.58002 11.9738 2.66927 11.9334 2.76747C11.893 2.86566 11.8725 2.97085 11.8728 3.07702V4.69309C11.8849 4.89917 11.9754 5.09282 12.1256 5.23444C12.2758 5.37606 12.4744 5.45492 12.6808 5.45492C12.8873 5.45492 13.0859 5.37606 13.2361 5.23444C13.3863 5.09282 13.4767 4.89917 13.4889 4.69309V3.08262C13.4896 2.97585 13.4692 2.86999 13.4289 2.77113C13.3885 2.67229 13.329 2.58239 13.2537 2.50663C13.1786 2.43088 13.0891 2.37075 12.9905 2.32972C12.892 2.28869 12.7862 2.26757 12.6794 2.26758Z" fill="#3B3A45"/>
<path fill-rule="evenodd" clip-rule="evenodd" d="M12.6794 20.0469C12.5732 20.0469 12.4681 20.0679 12.3701 20.1085C12.272 20.1492 12.183 20.209 12.1081 20.2841C12.0332 20.3593 11.9738 20.4486 11.9334 20.5468C11.893 20.645 11.8725 20.7501 11.8728 20.8563V22.4724C11.8849 22.6785 11.9754 22.8721 12.1256 23.0138C12.2758 23.1553 12.4744 23.2342 12.6808 23.2342C12.8873 23.2342 13.0859 23.1553 13.2361 23.0138C13.3863 22.8721 13.4767 22.6785 13.4889 22.4724V20.8563C13.4889 20.6416 13.4036 20.4357 13.2517 20.284C13.1 20.1322 12.8941 20.0469 12.6794 20.0469Z" fill="#3B3A45"/>
<path fill-rule="evenodd" clip-rule="evenodd" d="M20.1041 5.34847C19.9525 5.19812 19.7476 5.11377 19.5341 5.11377C19.3206 5.11377 19.1157 5.19812 18.9641 5.34847L17.8214 6.4912C17.6699 6.64274 17.5847 6.84826 17.5847 7.06257C17.5847 7.27688 17.6699 7.4824 17.8214 7.63394C17.973 7.78547 18.1785 7.87061 18.3928 7.87061C18.607 7.87061 18.8126 7.78547 18.9641 7.63394L20.1041 6.4912C20.1792 6.41626 20.239 6.32721 20.2797 6.22916C20.3203 6.13112 20.3413 6.026 20.3413 5.91983C20.3413 5.81367 20.3203 5.70855 20.2797 5.61049C20.239 5.51245 20.1792 5.4234 20.1041 5.34847Z" fill="#3B3A45"/>
<path fill-rule="evenodd" clip-rule="evenodd" d="M7.54108 17.9185C7.38937 17.7672 7.18391 17.6824 6.96971 17.6824C6.75552 17.6824 6.55007 17.7672 6.39835 17.9185L5.25561 19.0724C5.13705 19.2288 5.07958 19.4231 5.09397 19.6188C5.10835 19.8145 5.19358 19.9983 5.33373 20.1357C5.47388 20.273 5.65929 20.3546 5.85527 20.3651C6.05124 20.3756 6.24432 20.3143 6.39835 20.1927L7.54108 19.0724C7.6173 18.9969 7.6778 18.907 7.71908 18.808C7.76037 18.7089 7.78163 18.6027 7.78163 18.4954C7.78163 18.3881 7.76037 18.2819 7.71908 18.1829C7.6778 18.0838 7.6173 17.994 7.54108 17.9185Z" fill="#3B3A45"/>
<path fill-rule="evenodd" clip-rule="evenodd" d="M2.17651 12.7759C2.17651 12.9905 2.2618 13.1965 2.41359 13.3482C2.5654 13.5 2.77128 13.5853 2.98595 13.5853H4.60202C4.80811 13.5732 5.00176 13.4827 5.14338 13.3325C5.28499 13.1823 5.36387 12.9837 5.36387 12.7773C5.36387 12.5708 5.28499 12.3722 5.14338 12.222C5.00176 12.0718 4.80811 11.9814 4.60202 11.9692H2.98595C2.87979 11.9689 2.77459 11.9894 2.6764 12.0298C2.57822 12.0702 2.48897 12.1296 2.41377 12.2045C2.33856 12.2794 2.2789 12.3685 2.23818 12.4665C2.19747 12.5645 2.17651 12.6697 2.17651 12.7759Z" fill="#3B3A45"/>
<path fill-rule="evenodd" clip-rule="evenodd" d="M19.9507 12.7759C19.9507 12.9905 20.036 13.1965 20.1878 13.3482C20.3396 13.5 20.5455 13.5853 20.7601 13.5853H22.3763C22.5823 13.5732 22.776 13.4827 22.9176 13.3325C23.0592 13.1823 23.1381 12.9837 23.1381 12.7773C23.1381 12.5708 23.0592 12.3722 22.9176 12.222C22.776 12.0718 22.5823 11.9814 22.3763 11.9692H20.7601C20.546 11.9692 20.3406 12.0541 20.1888 12.2053C20.037 12.3565 19.9515 12.5617 19.9507 12.7759Z" fill="#3B3A45"/>
<path fill-rule="evenodd" clip-rule="evenodd" d="M5.25154 5.34858C5.10102 5.50065 5.0166 5.70599 5.0166 5.91995C5.0166 6.13392 5.10102 6.33924 5.25154 6.49132L6.39428 7.63125C6.46912 7.70629 6.55802 7.76584 6.65589 7.80652C6.75375 7.84719 6.85867 7.8682 6.96465 7.86833C7.07063 7.86846 7.1756 7.84772 7.27357 7.80728C7.37153 7.76683 7.46057 7.7075 7.53561 7.63265C7.61064 7.5578 7.67019 7.46891 7.71087 7.37104C7.75156 7.27318 7.77255 7.16826 7.77269 7.06227C7.77282 6.95629 7.75207 6.85133 7.71163 6.75336C7.6712 6.6554 7.61185 6.56635 7.53701 6.49132L6.39428 5.34858C6.31933 5.27338 6.23029 5.21372 6.13224 5.173C6.03419 5.13229 5.92907 5.11133 5.82291 5.11133C5.71674 5.11133 5.61162 5.13229 5.51357 5.173C5.41552 5.21372 5.32648 5.27338 5.25154 5.34858Z" fill="#3B3A45"/>
<path fill-rule="evenodd" clip-rule="evenodd" d="M17.8208 17.9182C17.6697 18.0699 17.5847 18.2753 17.5847 18.4896C17.5847 18.7037 17.6697 18.9092 17.8208 19.0609L18.9635 20.1925C19.1176 20.3141 19.3106 20.3754 19.5067 20.3648C19.7026 20.3543 19.888 20.2728 20.0282 20.1354C20.1684 19.9981 20.2535 19.8143 20.2679 19.6185C20.2823 19.4228 20.2248 19.2285 20.1063 19.0722L18.9635 17.9294C18.8893 17.8534 18.8009 17.7929 18.7033 17.7512C18.6056 17.7096 18.5007 17.6876 18.3945 17.6866C18.2883 17.6855 18.183 17.7055 18.0845 17.7451C17.9862 17.7849 17.8965 17.8438 17.8208 17.9182Z" fill="#3B3A45"/>
</svg>
