<svg width="24" height="24" viewBox="0 0 24 24" fill="none" xmlns="http://www.w3.org/2000/svg">
<path d="M7.75001 4C7.33579 4 7.00001 4.33579 7.00001 4.75C7.00001 5.16421 7.33579 5.5 7.75001 5.5L9.93934 5.5L5.21967 10.2197C4.92678 10.5126 4.92678 10.9874 5.21967 11.2803C5.51256 11.5732 5.98744 11.5732 6.28033 11.2803L11 6.56066L11 8.75C11 9.16421 11.3358 9.5 11.75 9.5C12.1642 9.5 12.5 9.16421 12.5 8.75L12.5 4.75C12.5 4.33579 12.1642 4 11.75 4H7.75001Z" fill="#3B3A45"/>
<path d="M17.75 7C18.1642 7 18.5 7.33579 18.5 7.75V19.75C18.5 20.1642 18.1642 20.5 17.75 20.5C17.3358 20.5 17 20.1642 17 19.75V7.75C17 7.33579 17.3358 7 17.75 7Z" fill="#3B3A45"/>
<path d="M14.5 10.75C14.5 10.3358 14.1642 10 13.75 10C13.3358 10 13 10.3358 13 10.75L13 19.75C13 20.1642 13.3358 20.5 13.75 20.5C14.1642 20.5 14.5 20.1642 14.5 19.75L14.5 10.75Z" fill="#3B3A45"/>
<path d="M9.75 13C10.1642 13 10.5 13.3358 10.5 13.75V19.75C10.5 20.1642 10.1642 20.5 9.75 20.5C9.33579 20.5 9 20.1642 9 19.75V13.75C9 13.3358 9.33579 13 9.75 13Z" fill="#3B3A45"/>
<path d="M5.75 16C6.16422 16 6.5 16.3358 6.5 16.75V19.75C6.5 20.1642 6.16422 20.5 5.75 20.5C5.33579 20.5 5 20.1642 5 19.75V16.75C5 16.3358 5.33579 16 5.75 16Z" fill="#3B3A45"/>
</svg>
