<svg id="Capa_1" data-name="Capa 1" xmlns="http://www.w3.org/2000/svg" viewBox="0 0 24 24"><defs><style>.cls-1{fill:#575768;}</style></defs><title>loan-01</title><path class="cls-1" d="M17.27,7.28a.82.82,0,0,1,.2.54.34.34,0,0,0,.11.24.43.43,0,0,0,.28.1.43.43,0,0,0,.27-.1.34.34,0,0,0,.11-.24,1.46,1.46,0,0,0-.42-1,1.93,1.93,0,0,0-1.08-.55V5.71a.31.31,0,0,0-.11-.23.38.38,0,0,0-.27-.1.4.4,0,0,0-.28.1.31.31,0,0,0-.11.23v.54a1.87,1.87,0,0,0-1.07.55,1.46,1.46,0,0,0-.42,1V8a1.46,1.46,0,0,0,.42,1A1.81,1.81,0,0,0,16,9.51v1.94a1,1,0,0,1-.52-.33.85.85,0,0,1-.21-.54.34.34,0,0,0-.11-.24.41.41,0,0,0-.54,0,.31.31,0,0,0-.12.24,1.43,1.43,0,0,0,.43,1,1.81,1.81,0,0,0,1.07.54v.54a.32.32,0,0,0,.11.24.4.4,0,0,0,.28.1.38.38,0,0,0,.27-.1.32.32,0,0,0,.11-.24v-.54a1.81,1.81,0,0,0,1.07-.54,1.46,1.46,0,0,0,.42-1v-.13a1.46,1.46,0,0,0-.42-1,1.87,1.87,0,0,0-1.07-.55V7A1,1,0,0,1,17.27,7.28ZM16,8.82a1,1,0,0,1-.52-.33.84.84,0,0,1-.2-.54V7.82a.84.84,0,0,1,.2-.54A1,1,0,0,1,16,7Zm1.29,1.09a.84.84,0,0,1,.2.54v.13a.84.84,0,0,1-.2.54,1,1,0,0,1-.52.33V9.58A1,1,0,0,1,17.26,9.91Zm-6.89-.09a6.13,6.13,0,0,1,4-7.1,6,6,0,0,1,2.92-.28,6.14,6.14,0,0,1,4.48,9,.75.75,0,1,1-1.31-.72A4.59,4.59,0,0,0,21,8.61a4.49,4.49,0,0,0-.48-2.16,4.58,4.58,0,0,0-1.43-1.69,4.59,4.59,0,0,0-4.26-.62A4.55,4.55,0,0,0,13,5.35,4.63,4.63,0,0,0,11.83,9.5a.74.74,0,0,1-.57.89A.75.75,0,0,1,10.37,9.82Zm9.57,3.5L16,14.8a1.88,1.88,0,0,0-.8-.78l-2.79-1.44a6.51,6.51,0,0,0-5.85-.06l-2.06,1a3.49,3.49,0,0,0-3,.21L2.25,15a2,2,0,0,1,2.69.72L6,17.64a2,2,0,0,1-.72,2.69l.75,1.3A3.45,3.45,0,0,0,7.77,19a3.05,3.05,0,0,1,2.7,0l.57.3a5.83,5.83,0,0,0,5.3,0l5.1-2.61a1.85,1.85,0,0,0-1.5-3.38Zm.82,2L15.66,18a4.32,4.32,0,0,1-3.93,0l-.57-.29a4.56,4.56,0,0,0-3.58-.25,3.76,3.76,0,0,0-.25-.54L6.24,15a3.21,3.21,0,0,0-.34-.48l1.35-.66a5.05,5.05,0,0,1,4.5.05l2.79,1.44a.37.37,0,0,1,.21.28l-.09.19a.27.27,0,0,1-.07.08.2.2,0,0,1-.21,0l-2.24-1.08-.66,1.35,2.24,1.08a1.7,1.7,0,0,0,1.74-.14,1.72,1.72,0,0,0,.54-.63l0-.08,4.43-1.69a.36.36,0,0,1,.29.65Z"/></svg>