<svg id="Capa_1" data-name="Capa 1" xmlns="http://www.w3.org/2000/svg" viewBox="0 0 24 24"><defs><style>.cls-1{fill:#3b3a45;}</style></defs><title>calendar</title><path class="cls-1" d="M17.3,8.88V7.3A5.31,5.31,0,0,0,12,2,5.11,5.11,0,0,0,8.26,3.54,5.26,5.26,0,0,0,6.68,7.3V8.88a4.56,4.56,0,0,0-3,4.29v4.29A4.54,4.54,0,0,0,8.17,22h7.65a4.54,4.54,0,0,0,4.54-4.54V13.17A4.54,4.54,0,0,0,17.3,8.88ZM8.18,7.29A3.84,3.84,0,0,1,9.32,4.6,3.75,3.75,0,0,1,12,3.5h0A3.8,3.8,0,0,1,15.8,7.3V8.63H8.18ZM18.86,17.46a3,3,0,0,1-3,3H8.17a3,3,0,0,1-3-3V13.17a3,3,0,0,1,3-3h7.65a3,3,0,0,1,3,3ZM12.74,14.2v2.23a.74.74,0,0,1-.75.75.76.76,0,0,1-.75-.75V14.2a.76.76,0,0,1,.75-.75A.74.74,0,0,1,12.74,14.2Z"/></svg>