<svg width="25" height="25" viewBox="0 0 25 25" fill="none" xmlns="http://www.w3.org/2000/svg">
<path d="M12.3114 22.9453H7.42543C4.98143 22.9453 2.99243 20.9563 2.99243 18.5103L2.99243 7.38131C2.99243 4.93531 4.98143 2.94531 7.42543 2.94531H12.3004C14.7464 2.94531 16.7364 4.93531 16.7364 7.38131V8.31331C16.7364 8.72731 16.4004 9.06331 15.9864 9.06331C15.5724 9.06331 15.2364 8.72731 15.2364 8.31331V7.38131C15.2364 5.76131 13.9194 4.44531 12.3004 4.44531L7.42543 4.44531C5.80843 4.44531 4.49243 5.76131 4.49243 7.38131L4.49243 18.5103C4.49243 20.1293 5.80843 21.4453 7.42543 21.4453H12.3114C13.9234 21.4453 15.2364 20.1333 15.2364 18.5213V17.5783C15.2364 17.1643 15.5724 16.8283 15.9864 16.8283C16.4004 16.8283 16.7364 17.1643 16.7364 17.5783V18.5213C16.7364 20.9613 14.7504 22.9453 12.3114 22.9453Z" fill="#575768"/>
<path d="M20.9637 13.6953L10.7383 13.6953C10.3243 13.6953 9.98828 13.3593 9.98828 12.9453C9.98828 12.5313 10.3243 12.1953 10.7383 12.1953L20.9634 12.1953L19.3226 10.5613C19.0296 10.2693 19.0276 9.79531 19.3206 9.50131C19.6126 9.20731 20.0866 9.20731 20.3806 9.49931L23.2973 12.4031C23.3089 12.4142 23.3202 12.4257 23.331 12.4375C23.4589 12.5751 23.5296 12.7571 23.5296 12.9453C23.5296 13.1337 23.4587 13.3159 23.3306 13.4536C23.32 13.4652 23.3089 13.4764 23.2975 13.4873L20.3806 16.3923C20.2346 16.5383 20.0426 16.6113 19.8516 16.6113C19.6596 16.6113 19.4666 16.5383 19.3206 16.3903C19.0286 16.0963 19.0296 15.6223 19.3226 15.3303L20.9637 13.6953Z" fill="#575768"/>
</svg>
