<svg width="24" height="24" viewBox="0 0 24 24" fill="none" xmlns="http://www.w3.org/2000/svg">
<path fill-rule="evenodd" clip-rule="evenodd" d="M3.89995 5.32572C3.88459 5.34615 3.87946 5.35297 3.88462 5.34394C3.87169 5.36656 3.85758 5.38849 3.84236 5.40964C3.63962 5.69141 3.26673 6.43099 3.70183 7.8918C4.14917 9.39372 5.45261 11.6529 8.67875 14.856C11.905 18.0587 14.182 19.3541 15.698 19.799C17.1747 20.2324 17.9246 19.8606 18.2104 19.6577C18.2321 19.6423 18.2546 19.628 18.2778 19.615C18.2753 19.6165 18.278 19.6146 18.2856 19.6096C18.3255 19.5829 18.4991 19.4667 18.7308 19.2712C18.9991 19.0447 19.3118 18.7393 19.5612 18.387C19.8127 18.0317 19.9705 17.6703 19.9961 17.3218C20.02 16.9978 19.936 16.6152 19.5713 16.1728C18.3982 14.759 17.6647 14.2839 17.2037 14.148C16.8107 14.0322 16.5246 14.1306 16.021 14.3726C15.987 14.3889 15.9517 14.4061 15.9152 14.4239C15.4388 14.6563 14.751 14.9917 13.8662 14.8818C12.924 14.7648 11.9047 14.1748 10.6431 12.9226L10.643 12.9225C9.37827 11.6667 8.7922 10.6326 8.71207 9.66176C8.63782 8.76225 9.02399 8.06016 9.29147 7.57388C9.31195 7.53665 9.33173 7.50068 9.35055 7.46599C9.63879 6.93485 9.75596 6.63666 9.65819 6.24787C9.54538 5.79929 9.09955 5.07246 7.67639 3.90878C7.24367 3.55709 6.84471 3.47265 6.4782 3.50704C6.08527 3.54391 5.67306 3.72458 5.26998 3.9986C4.87102 4.26981 4.52244 4.60428 4.26474 4.88711C4.06461 5.10675 3.94268 5.2689 3.89995 5.32572ZM6.33805 2.0136C7.09862 1.94223 7.8875 2.14696 8.62361 2.7457L8.62509 2.7469L8.62508 2.7469C10.1032 3.95542 10.8767 4.94267 11.1129 5.88204C11.3642 6.88128 10.9601 7.6449 10.6689 8.18144L10.6602 8.19755C10.3509 8.76751 10.1708 9.09939 10.207 9.53837C10.2434 9.97897 10.5278 10.6943 11.6998 11.858C12.8754 13.0248 13.5996 13.3372 14.0511 13.3933C14.4841 13.4471 14.7999 13.2953 15.3412 13.0351L15.3713 13.0206C15.9054 12.7639 16.6511 12.4213 17.6278 12.7092C18.5364 12.977 19.5104 13.7502 20.7264 15.2159L20.7277 15.2175C21.3204 15.9358 21.5465 16.6945 21.4921 17.4321C21.4395 18.1455 21.1304 18.7663 20.7856 19.2535C20.1588 20.1392 19.2982 20.7451 19.0577 20.8956C18.3748 21.3714 17.1514 21.7888 15.2756 21.2383C13.4196 20.6936 10.9317 19.2061 7.62198 15.9206L7.62194 15.9205C4.31317 12.6354 2.81378 10.165 2.26424 8.31999C1.7069 6.44875 2.13182 5.22858 2.61329 4.54966C2.70143 4.41522 2.89961 4.15821 3.15596 3.87686C3.4631 3.53976 3.89977 3.11629 4.42668 2.7581C4.94945 2.40271 5.6037 2.08251 6.33805 2.0136Z" fill="#3B3A45"/>
</svg>
