<svg width="24" height="24" viewBox="0 0 24 24" fill="none" xmlns="http://www.w3.org/2000/svg">
<path d="M11.25 3.75006C11.25 3.33585 11.5858 3.00006 12 3.00006C12.4142 3.00006 12.75 3.33585 12.75 3.75006L12.75 20.2501C12.75 20.6643 12.4142 21.0001 12 21.0001C11.5858 21.0001 11.25 20.6643 11.25 20.2501L11.25 3.75006Z" fill="#E7446C"/>
<path d="M20.25 11.0185C20.6642 11.0185 21 11.3543 21 11.7685C21 12.1827 20.6642 12.5185 20.25 12.5185L3.75 12.5185C3.33579 12.5185 3 12.1827 3 11.7685C3 11.3543 3.33579 11.0185 3.75 11.0185L20.25 11.0185Z" fill="#E7446C"/>
</svg>
