<svg id="Capa_1" data-name="Capa 1" xmlns="http://www.w3.org/2000/svg" viewBox="0 0 24 24"><defs><style>.cls-1{fill:#00d0a6;}</style></defs><title>Icons</title><path class="cls-1" d="M2.62,8.61a.75.75,0,0,0,1.5,0V7.1a3,3,0,0,1,3-3H8.34a.75.75,0,0,0,0-1.5H7.1A4.49,4.49,0,0,0,2.62,7.1Zm17.26,0a.75.75,0,0,0,1.5,0V7.1A4.49,4.49,0,0,0,16.9,2.62H15.69a.75.75,0,0,0,0,1.5H16.9a3,3,0,0,1,3,3Zm-3,12.77H15.69a.75.75,0,0,1,0-1.5H16.9a3,3,0,0,0,3-3V12.82a.75.75,0,0,1,1.5,0V16.9A4.49,4.49,0,0,1,16.9,21.38Zm-9.8,0H8.34a.75.75,0,0,0,0-1.5H7.1a3,3,0,0,1-3-3V12.82a.75.75,0,0,0-1.5,0V16.9A4.49,4.49,0,0,0,7.1,21.38ZM16,6H14.63a2,2,0,0,0-2,2V9.39a2,2,0,0,0,2,2H16a2,2,0,0,0,2-2V8A2,2,0,0,0,16,6Zm.5,3.35a.5.5,0,0,1-.5.5H14.63a.5.5,0,0,1-.5-.5V8a.5.5,0,0,1,.5-.5H16a.51.51,0,0,1,.5.5ZM9.37,6H8A2,2,0,0,0,6,8V9.39a2,2,0,0,0,2,2H9.37a2,2,0,0,0,2-2V8A2,2,0,0,0,9.37,6Zm.5,3.35a.5.5,0,0,1-.5.5H8a.5.5,0,0,1-.5-.5V8a.51.51,0,0,1,.5-.5H9.37a.5.5,0,0,1,.5.5ZM16,12.61H14.63a2,2,0,0,0-2,2V16a2,2,0,0,0,2,2H16a2,2,0,0,0,2-2V14.61A2,2,0,0,0,16,12.61Zm.5,3.35a.51.51,0,0,1-.5.5H14.63a.5.5,0,0,1-.5-.5V14.61a.5.5,0,0,1,.5-.5H16a.5.5,0,0,1,.5.5ZM9.37,12.61H8a2,2,0,0,0-2,2V16a2,2,0,0,0,2,2H9.37a2,2,0,0,0,2-2V14.61A2,2,0,0,0,9.37,12.61ZM9.87,16a.5.5,0,0,1-.5.5H8a.51.51,0,0,1-.5-.5V14.61a.5.5,0,0,1,.5-.5H9.37a.5.5,0,0,1,.5.5Z"/></svg>