<svg id="Capa_1" data-name="Capa 1" xmlns="http://www.w3.org/2000/svg" viewBox="0 0 24 24"><defs><style>.cls-1{fill:#e7446c;}</style></defs><title>Icons</title><path class="cls-1" d="M9,3.44c-2.4,0-3.61.94-3.61,2.8V20.37a.17.17,0,0,0,.09.16.16.16,0,0,0,.19,0l6-3.43a.71.71,0,0,1,.69,0l5.94,3.43a.21.21,0,0,0,.19,0,.2.2,0,0,0,.09-.17V6.42c0-.74,0-3-3.6-3ZM5.6,22a1.58,1.58,0,0,1-.81-.23A1.6,1.6,0,0,1,4,20.37V6.24C4,3.55,5.83,2,9,2h6c3.18,0,5,1.61,5,4.42V20.36a1.61,1.61,0,0,1-.79,1.41,1.56,1.56,0,0,1-1.59,0L12,18.55,6.38,21.79A1.6,1.6,0,0,1,5.6,22ZM11.75,8H8.53a.72.72,0,0,1,0-1.44h3.22a.72.72,0,0,1,0,1.44Zm3.87,3.59H8.53a.72.72,0,0,1,0-1.44h7.09a.72.72,0,0,1,0,1.44Zm0,3.6H8.53a.72.72,0,0,1,0-1.44h7.09a.72.72,0,0,1,0,1.44Z"/></svg>