<svg width="24" height="24" viewBox="0 0 24 24" fill="none" xmlns="http://www.w3.org/2000/svg">
<path fill-rule="evenodd" clip-rule="evenodd" d="M13.0542 3.76886C11.225 3.53283 9.36887 3.90477 7.77181 4.82741C6.75095 5.41718 5.87213 6.21104 5.18564 7.15178V5.3811C5.18564 4.96688 4.84985 4.6311 4.43564 4.6311C4.02143 4.6311 3.68564 4.96688 3.68564 5.3811L3.68564 9.16317C3.68564 9.57739 4.02143 9.91317 4.43564 9.91317H4.89103C4.90243 9.91343 4.91381 9.91343 4.92516 9.91317H8.21771C8.63193 9.91317 8.96771 9.57739 8.96771 9.16317C8.96771 8.74896 8.63193 8.41317 8.21771 8.41317H6.14072C6.73497 7.47445 7.5502 6.68776 8.52217 6.12625C9.83432 5.3682 11.3593 5.0626 12.8623 5.25652C14.3652 5.45045 15.7627 6.13314 16.8394 7.19944C17.9162 8.26574 18.6125 9.65648 18.8211 11.1574C18.8781 11.5677 19.2569 11.8541 19.6672 11.7971C20.0774 11.7401 20.3638 11.3612 20.3068 10.951C20.0529 9.12412 19.2054 7.43142 17.8949 6.13361C16.5843 4.83581 14.8834 4.00489 13.0542 3.76886ZM5.1785 12.8421C5.12148 12.4318 4.74267 12.1454 4.3324 12.2025C3.92213 12.2595 3.63576 12.6383 3.69278 13.0485C3.94666 14.8754 4.79414 16.5681 6.10469 17.8659C7.41523 19.1637 9.11612 19.9946 10.9454 20.2307C12.7746 20.4667 14.6307 20.0947 16.2278 19.1721C17.2486 18.5823 18.1274 17.7885 18.8139 16.8477V18.6184C18.8139 19.0326 19.1497 19.3684 19.5639 19.3684C19.9781 19.3684 20.3139 19.0326 20.3139 18.6184V14.8364C20.3139 14.4221 19.9781 14.0864 19.5639 14.0864H19.1086C19.0971 14.0861 19.0858 14.0861 19.0744 14.0864L15.7819 14.0864C15.3676 14.0864 15.0319 14.4221 15.0319 14.8364C15.0319 15.2506 15.3676 15.5864 15.7819 15.5864H17.8588C17.2646 16.5251 16.4494 17.3118 15.4774 17.8733C14.1652 18.6313 12.6402 18.9369 11.1373 18.743C9.63439 18.5491 8.23691 17.8664 7.16015 16.8001C6.0834 15.7338 5.38709 14.343 5.1785 12.8421Z" fill="#C52D52"/>
</svg>
