<svg id="Capa_1" data-name="Capa 1" xmlns="http://www.w3.org/2000/svg" viewBox="0 0 24 24"><defs><style>.cls-1{fill:#6177b9;}</style></defs><title>Icons</title><path class="cls-1" d="M17,4.28a4,4,0,0,0-.18-.89,1.12,1.12,0,0,1,.06-.72,1.21,1.21,0,0,1,.49-.54A1.24,1.24,0,0,1,18,2a1.19,1.19,0,0,1,.66.25,1.29,1.29,0,0,1,.46.83c.21,1.19.43,2.38.65,3.56a1.11,1.11,0,0,1,0,.51,1,1,0,0,1-.19.47,1.09,1.09,0,0,1-.39.35,1.37,1.37,0,0,1-.52.16l-4,.65a1.29,1.29,0,0,1-.88-.21,1.11,1.11,0,0,1-.46-.74A1.1,1.1,0,0,1,13.6,7a1.22,1.22,0,0,1,.78-.43l.71-.12.73-.12A7.58,7.58,0,0,0,14,5.6a8.09,8.09,0,0,0-4.47.16A7.49,7.49,0,0,0,5.93,8.23a6.84,6.84,0,0,0-.47,8,7.57,7.57,0,0,0,3.31,2.83,8.15,8.15,0,0,0,4.42.61,7.82,7.82,0,0,0,4-1.81,7.07,7.07,0,0,0,2.28-3.61l.15-.67a1.09,1.09,0,0,1,.45-.7,1.24,1.24,0,0,1,.84-.22,1.39,1.39,0,0,1,.45.14,1.09,1.09,0,0,1,.35.29,1.06,1.06,0,0,1,.21.39A1.32,1.32,0,0,1,22,14a9.18,9.18,0,0,1-2.44,4.9,10.09,10.09,0,0,1-4.9,2.83,10.4,10.4,0,0,1-5.37,0A10,10,0,0,1,4.71,19a8.71,8.71,0,0,1-2.64-5.35A9,9,0,0,1,3.86,7,10.1,10.1,0,0,1,10,3.27a10.4,10.4,0,0,1,6.73.87Z"/></svg>