<svg id="Capa_1" data-name="Capa 1" xmlns="http://www.w3.org/2000/svg" viewBox="0 0 24 24"><defs><style>.cls-1{fill:#575768;}</style></defs><title>calendar</title><path class="cls-1" d="M19,3.25a2.75,2.75,0,0,0-.75,5.4V13A4.23,4.23,0,0,1,14,17.25H12.81l1.72-1.72a.75.75,0,0,0-1.06-1.06l-3,3a.75.75,0,0,0,0,1.06l3,3a.75.75,0,1,0,1.06-1.06l-1.72-1.72H14A5.74,5.74,0,0,0,19.75,13V8.65A2.75,2.75,0,0,0,19,3.25Zm0,4A1.25,1.25,0,1,1,20.25,6,1.25,1.25,0,0,1,19,7.25Zm-5.47-.72a.75.75,0,0,0,0-1.06l-3-3A.75.75,0,1,0,9.47,3.53l1.72,1.72H10A5.74,5.74,0,0,0,4.25,11v4.35a2.75,2.75,0,1,0,1.5,0V11A4.23,4.23,0,0,1,10,6.75h1.19L9.47,8.47a.75.75,0,0,0,1.06,1.06ZM6.25,18A1.25,1.25,0,1,1,5,16.75,1.25,1.25,0,0,1,6.25,18Z"/></svg>