<svg id="Capa_1" data-name="Capa 1" xmlns="http://www.w3.org/2000/svg" viewBox="0 0 25 24"><defs><style>.cls-1{fill:#c52d52;}</style></defs><title>saving</title><path class="cls-1" d="M19.17,14.23a6.69,6.69,0,0,0,1.88-.86,7,7,0,0,1-1.65,3.16,2.06,2.06,0,0,0-.53,1.87,1.75,1.75,0,0,1-1.24,2.15l-2,.53a1.18,1.18,0,0,1-1.45-.84,1.3,1.3,0,0,0-1.29-.92h-.12a1,1,0,0,0-1,.77l0,.06a1,1,0,0,1-1.13.78L8.39,20.5a1.69,1.69,0,0,1-1.36-2,2,2,0,0,0-.59-1.72,5.36,5.36,0,0,1-.4-.43,2.37,2.37,0,0,0-1.78-.9H4.17a2,2,0,0,1-2-2V11.26A1.57,1.57,0,0,1,3.75,9.69a1.84,1.84,0,0,0,1.55-1,7.43,7.43,0,0,1,.52-.77V2.88a3.39,3.39,0,0,1,1.3.26l.2.09a3.35,3.35,0,0,1,.9.64,3,3,0,0,1,.47.6A3.4,3.4,0,0,1,9,5a2.81,2.81,0,0,1,.16.49A9.58,9.58,0,0,1,10.54,5a11.84,11.84,0,0,1,1.19-.21A6.64,6.64,0,0,0,11.1,6.4a8.79,8.79,0,0,0-1.4.44l-1.62.69L7.66,5.82l-.09-.27a2,2,0,0,0-.25-.43V8.46L7,8.87a5.79,5.79,0,0,0-.41.6,3.34,3.34,0,0,1-2.84,1.72.07.07,0,0,0-.08.07v2.21a.5.5,0,0,0,.5.5h.09A3.88,3.88,0,0,1,7.18,15.4l.32.34a3.45,3.45,0,0,1,1,3,.21.21,0,0,0,.16.24l1.82.33a2.49,2.49,0,0,1,2.31-1.54h.1a2.83,2.83,0,0,1,2.66,1.73l1.69-.45a.25.25,0,0,0,.18-.31,3.59,3.59,0,0,1,.86-3.27A5.83,5.83,0,0,0,19.17,14.23ZM7.78,10.59a.9.9,0,1,0,.9-.9A.9.9,0,0,0,7.78,10.59ZM12.34,8A5.08,5.08,0,1,1,17.42,13,5.08,5.08,0,0,1,12.34,8Zm1.5,0a3.58,3.58,0,1,0,3.58-3.58A3.58,3.58,0,0,0,13.84,8Zm4,2a.75.75,0,0,0,1.06-1.06l-.4-.4a1.22,1.22,0,0,1-.37-.88V6a.75.75,0,0,0-1.5,0V7.59a2.73,2.73,0,0,0,.81,1.94Z"/></svg>