<svg width="24" height="24" viewBox="0 0 24 24" fill="none" xmlns="http://www.w3.org/2000/svg">
<path fill-rule="evenodd" clip-rule="evenodd" d="M2 11.738C2 17.108 6.369 21.477 11.739 21.477C14.0356 21.477 16.149 20.6779 17.8158 19.3431L20.9844 22.5027C21.1314 22.6487 21.3234 22.7217 21.5144 22.7217C21.7064 22.7217 21.8994 22.6487 22.0454 22.5007C22.3384 22.2077 22.3374 21.7337 22.0444 21.4407L18.913 18.3172C20.5044 16.5829 21.477 14.2719 21.477 11.738C21.477 6.368 17.109 2 11.739 2C6.369 2 2 6.368 2 11.738ZM3.5 11.738C3.5 7.195 7.196 3.5 11.739 3.5C16.281 3.5 19.977 7.195 19.977 11.738C19.977 16.281 16.281 19.977 11.739 19.977C7.196 19.977 3.5 16.281 3.5 11.738Z" fill="#575768"/>
</svg>
