<svg id="Capa_1" data-name="Capa 1" xmlns="http://www.w3.org/2000/svg" viewBox="0 0 24 24"><defs><style>.cls-1{fill:#3b3a45;}</style></defs><title>seguros</title><path class="cls-1" d="M12,2.25A9.75,9.75,0,1,0,21.75,12,9.76,9.76,0,0,0,12,2.25Zm0,1.5a8.23,8.23,0,0,1,5.28,1.91L14.79,8.15a4.77,4.77,0,0,0-5.58,0L6.72,5.66A8.23,8.23,0,0,1,12,3.75ZM15.25,12A3.25,3.25,0,1,1,12,8.75,3.26,3.26,0,0,1,15.25,12ZM3.75,12A8.23,8.23,0,0,1,5.66,6.72L8.15,9.21a4.77,4.77,0,0,0,0,5.58L5.66,17.28A8.23,8.23,0,0,1,3.75,12ZM12,20.25a8.23,8.23,0,0,1-5.28-1.91l2.49-2.49a4.77,4.77,0,0,0,5.58,0l2.49,2.49A8.23,8.23,0,0,1,12,20.25Zm6.34-3-2.49-2.49a4.77,4.77,0,0,0,0-5.58l2.49-2.49a8.25,8.25,0,0,1,0,10.56Z"/></svg>