<svg width="24" height="24" viewBox="0 0 24 24" fill="none" xmlns="http://www.w3.org/2000/svg">
<path d="M8.433 22H13.319C15.758 22 17.744 20.016 17.744 17.576V16.633C17.744 16.219 17.408 15.883 16.994 15.883C16.58 15.883 16.244 16.219 16.244 16.633V17.576C16.244 19.188 14.931 20.5 13.319 20.5H8.433C6.816 20.5 5.5 19.184 5.5 17.565V6.436C5.5 4.816 6.816 3.5 8.433 3.5H13.308C14.927 3.5 16.244 4.816 16.244 6.436V7.368C16.244 7.782 16.58 8.118 16.994 8.118C17.408 8.118 17.744 7.782 17.744 7.368V6.436C17.744 3.99 15.754 2 13.308 2H8.433C5.989 2 4 3.99 4 6.436V17.565C4 20.011 5.989 22 8.433 22Z" fill="#00D0A6"/>
<path fill-rule="evenodd" clip-rule="evenodd" d="M12.5107 9.99229C12.5107 10.1227 12.5625 10.2478 12.6547 10.3401C12.747 10.4323 12.8721 10.4841 13.0025 10.4841C13.133 10.4841 13.2581 10.4323 13.3503 10.3401C13.4425 10.2478 13.4943 10.1227 13.4943 9.99229C13.4936 9.45019 13.3018 8.9257 12.9527 8.51098C12.6036 8.09626 12.1195 7.81783 11.5854 7.72463V6.94123C11.5854 6.81079 11.5336 6.68569 11.4414 6.59345C11.3491 6.50122 11.224 6.4494 11.0936 6.4494C10.9632 6.4494 10.8381 6.50122 10.7458 6.59345C10.6536 6.68569 10.6018 6.81079 10.6018 6.94123V7.72463C10.069 7.8184 9.58652 8.09736 9.23943 8.51226C8.89233 8.92717 8.70297 9.45135 8.70475 9.99229V10.1899C8.70297 10.7308 8.89233 11.255 9.23943 11.6699C9.58652 12.0848 10.069 12.3638 10.6018 12.4575V15.2661C10.3338 15.1819 10.0996 15.0146 9.93321 14.7883C9.76682 14.562 9.67691 14.2885 9.67652 14.0076C9.67652 13.8772 9.6247 13.7521 9.53247 13.6598C9.44023 13.5676 9.31514 13.5158 9.1847 13.5158C9.05426 13.5158 8.92916 13.5676 8.83692 13.6598C8.74469 13.7521 8.69287 13.8772 8.69287 14.0076C8.69362 14.5497 8.8854 15.0742 9.23452 15.489C9.58363 15.9037 10.0677 16.1821 10.6018 16.2753V17.0588C10.6018 17.1892 10.6536 17.3143 10.7458 17.4065C10.8381 17.4988 10.9632 17.5506 11.0936 17.5506C11.224 17.5506 11.3491 17.4988 11.4414 17.4065C11.5336 17.3143 11.5854 17.1892 11.5854 17.0588V16.2753C12.1182 16.1816 12.6007 15.9026 12.9478 15.4877C13.2949 15.0728 13.4843 14.5486 13.4825 14.0076V13.8101C13.4842 13.2692 13.2949 12.745 12.9478 12.3301C12.6007 11.9152 12.1182 11.6362 11.5854 11.5425V8.73393C11.8534 8.81805 12.0876 8.98541 12.254 9.2117C12.4204 9.43799 12.5103 9.71142 12.5107 9.99229ZM9.68839 10.1899V9.99229C9.68631 9.7125 9.77385 9.43939 9.93821 9.21295C10.1026 8.98651 10.3351 8.81864 10.6018 8.73393V11.4482C10.3351 11.3635 10.1026 11.1956 9.93821 10.9692C9.77385 10.7428 9.68631 10.4697 9.68839 10.1899ZM12.4988 13.8101V14.0076C12.5009 14.2874 12.4134 14.5606 12.249 14.787C12.0847 15.0135 11.8521 15.1813 11.5854 15.2661V12.5517C11.8521 12.6365 12.0846 12.8043 12.249 13.0308C12.4134 13.2572 12.5009 13.5303 12.4988 13.8101Z" fill="#00D0A6"/>
<path d="M15.7461 12.7497H20.9715L19.3304 14.3847C19.0374 14.6767 19.0364 15.1507 19.3284 15.4447C19.4744 15.5927 19.6674 15.6657 19.8594 15.6657C20.0504 15.6657 20.2424 15.5927 20.3884 15.4467L23.3053 12.5417C23.3167 12.5308 23.3278 12.5196 23.3385 12.508C23.4665 12.3703 23.5374 12.1881 23.5374 11.9997C23.5374 11.8115 23.4667 11.6295 23.3389 11.4919C23.328 11.4801 23.3167 11.4686 23.3051 11.4575L20.3884 8.55371C20.0944 8.26171 19.6204 8.26171 19.3284 8.55571C19.0354 8.84971 19.0374 9.32371 19.3304 9.61571L20.9712 11.2497H15.7461C15.3321 11.2497 14.9961 11.5857 14.9961 11.9997C14.9961 12.4137 15.3321 12.7497 15.7461 12.7497Z" fill="#00D0A6"/>
</svg>
