<svg width="25" height="25" viewBox="0 0 25 25" fill="none" xmlns="http://www.w3.org/2000/svg">
<path fill-rule="evenodd" clip-rule="evenodd" d="M13.4758 4.44531C12.6278 4.44531 7.27785 6.32931 6.66085 6.84431C6.47885 7.02731 6.47185 7.34531 6.51085 9.47431C6.52885 10.5003 6.55385 11.8943 6.55385 13.8243C6.55385 19.0253 12.2758 21.3343 13.4748 21.7593C14.6728 21.3323 20.3978 19.0103 20.3978 13.8243C20.3978 11.8923 20.4228 10.4973 20.4418 9.47131C20.4798 7.34431 20.4728 7.02631 20.2798 6.83431C19.6748 6.32931 14.3238 4.44531 13.4758 4.44531ZM13.4758 23.3013C13.4028 23.3013 13.3298 23.2913 13.2588 23.2693C12.9238 23.1683 5.05385 20.7063 5.05385 13.8243C5.05385 11.9073 5.02885 10.5203 5.01085 9.50231C4.96485 6.95931 4.95485 6.42931 5.61185 5.77331C6.39685 4.98631 12.3418 2.94531 13.4758 2.94531C14.6088 2.94531 20.5538 4.98631 21.3408 5.77331C21.9968 6.42931 21.9868 6.95931 21.9408 9.49931C21.9228 10.5173 21.8978 11.9043 21.8978 13.8243C21.8978 20.7063 14.0278 23.1683 13.6928 23.2693C13.6218 23.2913 13.5488 23.3013 13.4758 23.3013Z" fill="#575768"/>
</svg>
