<svg width="24" height="24" viewBox="0 0 24 24" fill="none" xmlns="http://www.w3.org/2000/svg">
<path fill-rule="evenodd" clip-rule="evenodd" d="M4.97577 6.59838C6.77017 5.0813 9.25098 4.00012 12.0022 4.00012C14.7529 4.00012 17.2337 5.08046 19.0282 6.59718C20.8033 8.09738 22.0042 10.1142 22.0042 12.0521C22.0042 13.9901 20.8033 16.0069 19.0282 17.5071C17.2337 19.0238 14.7529 20.1041 12.0022 20.1041C9.25098 20.1041 6.77017 19.0229 4.97577 17.5059C3.20099 16.0054 2.00024 13.9886 2.00024 12.0521C2.00024 10.1156 3.20099 8.09888 4.97577 6.59838ZM5.94422 7.74386C4.3705 9.07436 3.50024 10.7086 3.50024 12.0521C3.50024 13.3956 4.3705 15.0299 5.94422 16.3604C7.49832 17.6743 9.64351 18.6041 12.0022 18.6041C14.3606 18.6041 16.5058 17.675 18.06 16.3614C19.6337 15.0314 20.5042 13.3972 20.5042 12.0521C20.5042 10.7071 19.6337 9.07286 18.06 7.74282C16.5058 6.42929 14.3606 5.50012 12.0022 5.50012C9.64351 5.50012 7.49832 6.42994 5.94422 7.74386ZM12.0022 9.64012C10.6703 9.64012 9.59024 10.7195 9.59024 12.0521C9.59024 13.3839 10.6705 14.4641 12.0022 14.4641C13.334 14.4641 14.4142 13.3839 14.4142 12.0521C14.4142 10.7195 13.3342 9.64012 12.0022 9.64012ZM8.09024 12.0521C8.09024 9.89075 9.84218 8.14012 12.0022 8.14012C14.1623 8.14012 15.9142 9.89075 15.9142 12.0521C15.9142 14.2123 14.1625 15.9641 12.0022 15.9641C9.84203 15.9641 8.09024 14.2123 8.09024 12.0521Z" fill="#3B3A45"/>
</svg>
