<svg width="24" height="24" viewBox="0 0 24 24" fill="none" xmlns="http://www.w3.org/2000/svg">
<path fill-rule="evenodd" clip-rule="evenodd" d="M5.08457 5.18185H18.9142L19.3915 9.00057H4.59933L5.08457 5.18185ZM4.35105 3.54549H2.18195L2.07093 3.55296C1.67157 3.60714 1.36377 3.94946 1.36377 4.36367C1.36377 4.81554 1.73008 5.18185 2.18195 5.18185H3.43505L1.62691 19.4114L1.62033 19.5225C1.62373 19.9255 1.92452 20.274 2.33543 20.3262C2.7837 20.3832 3.19327 20.066 3.25023 19.6177L4.3914 10.6369H19.5961L20.719 19.6199L20.7401 19.7292C20.8434 20.1187 21.2213 20.3817 21.6323 20.3303C22.0807 20.2743 22.3987 19.8654 22.3427 19.417L20.5633 5.18185H21.8183L21.9293 5.17438C22.3287 5.12021 22.6365 4.77788 22.6365 4.36367C22.6365 3.9118 22.2702 3.54549 21.8183 3.54549H19.6489C19.6413 3.54538 19.6337 3.54538 19.6261 3.54549H4.35675L4.35583 3.54543C4.35424 3.54545 4.35264 3.54547 4.35105 3.54549Z" fill="#575768"/>
<mask id="mask0" style="mask-type:alpha" maskUnits="userSpaceOnUse" x="1" y="3" width="22" height="18">
<path fill-rule="evenodd" clip-rule="evenodd" d="M5.08457 5.18185H18.9142L20.719 19.6199L20.7401 19.7292C20.8434 20.1187 21.2213 20.3817 21.6323 20.3303C22.0807 20.2743 22.3987 19.8654 22.3427 19.417L20.5633 5.18185H21.8183L21.9293 5.17438C22.3287 5.12021 22.6365 4.77788 22.6365 4.36367C22.6365 3.9118 22.2702 3.54549 21.8183 3.54549H19.6489C19.6413 3.54538 19.6337 3.54538 19.6261 3.54549H4.35675L4.35583 3.54543C4.35424 3.54545 4.35264 3.54547 4.35105 3.54549H2.18195L2.07093 3.55296C1.67157 3.60714 1.36377 3.94946 1.36377 4.36367C1.36377 4.81554 1.73008 5.18185 2.18195 5.18185H3.43505L1.62691 19.4114L1.62033 19.5225C1.62373 19.9255 1.92452 20.274 2.33543 20.3262C2.7837 20.3832 3.19327 20.066 3.25023 19.6177L5.08457 5.18185Z" fill="white"/>
</mask>
<g mask="url(#mask0)">
</g>
</svg>
