<svg width="24" height="24" viewBox="0 0 24 24" fill="none" xmlns="http://www.w3.org/2000/svg">
<path d="M11.9893 2.35779C7.99981 2.35779 4.55833 4.79094 3.11159 8.25434C2.93623 8.62699 3.11159 9.06539 3.48424 9.24075C3.85688 9.41612 4.29529 9.24075 4.47065 8.86811V8.84619C5.69818 5.88695 8.61358 3.84837 11.9893 3.84837C13.984 3.84837 15.8034 4.57174 17.2283 5.75543C17.5351 6.01847 18.0174 5.97463 18.2804 5.66775C18.5435 5.36087 18.4996 4.87862 18.1927 4.61558C16.5049 3.21268 14.3348 2.35779 11.9893 2.35779Z" fill="#C52D52"/>
<path d="M11.9892 5.31702C11.2001 5.31702 10.4548 5.44854 9.75334 5.68966C9.35878 5.82118 9.1615 6.25959 9.29302 6.63223C9.42454 7.0268 9.86295 7.22408 10.2356 7.09256C10.7836 6.89528 11.3535 6.80759 11.9673 6.80759C14.8388 6.80759 17.1624 9.13114 17.1624 12.0027C17.1624 14.1947 16.439 19.1706 16.439 19.1706C16.3733 19.5652 16.6363 19.9598 17.0309 20.0474C17.4254 20.1132 17.82 19.8502 17.9077 19.4556V19.3898C17.9077 19.3898 18.653 14.5016 18.653 12.0027C18.6749 8.32009 15.6718 5.31702 11.9892 5.31702Z" fill="#C52D52"/>
<path d="M19.0692 7.72819C19.0472 7.33363 19.376 6.9829 19.7925 6.9829C20.0556 6.96098 20.3186 7.11442 20.472 7.39939C21.2173 8.75844 21.6557 10.3586 21.6557 12.0246C21.6557 12.9891 21.5023 13.9097 21.2393 14.7865C21.2173 14.7865 21.2173 14.8084 21.2173 14.8304C21.0858 15.2249 20.6693 15.4222 20.2748 15.2907C19.8802 15.1592 19.6829 14.7427 19.8144 14.3481C20.0556 13.6028 20.1652 12.8137 20.1652 12.0026C20.1652 10.5778 19.7925 9.24069 19.1568 8.07891C19.113 7.96931 19.0692 7.85971 19.0692 7.72819Z" fill="#C52D52"/>
<path d="M7.27628 7.5968C7.05708 7.61872 6.8598 7.7064 6.72828 7.88177C5.85146 9.02162 5.32538 10.4464 5.32538 11.9809C5.32538 15.4662 4.75545 17.7459 4.75545 17.7459C4.64585 18.1404 4.86505 18.5569 5.25962 18.6665C5.65418 18.7761 6.07067 18.5569 6.18027 18.1624V18.1185C6.18027 18.1185 6.79404 15.6635 6.79404 12.0028C6.79404 10.7972 7.21052 9.70115 7.89005 8.80242C8.15309 8.47361 8.08733 8.01329 7.78045 7.75024C7.64893 7.64064 7.45164 7.5968 7.27628 7.5968Z" fill="#C52D52"/>
<path d="M8.28448 12.0027C8.28448 9.96416 9.95042 8.29822 11.989 8.29822C14.0276 8.29822 15.6935 9.96416 15.6935 12.0027C15.6935 12.9234 15.6716 13.8879 15.6059 14.8085V14.8305C15.5839 15.225 15.2332 15.5319 14.8167 15.51C14.4222 15.4881 14.1153 15.1373 14.1372 14.7209C14.181 13.8221 14.2249 12.9015 14.2249 12.0027C14.2249 10.7533 13.2604 9.74496 12.0109 9.74496C10.7615 9.74496 9.77506 10.7533 9.77506 11.9808C9.77506 17.3294 9.00785 20.2886 9.00785 20.2886C8.98593 20.3105 8.98593 20.3324 8.98593 20.3544C8.87633 20.7489 8.45985 20.9681 8.06528 20.8585C7.67072 20.7489 7.45151 20.3324 7.56111 19.9379C7.56111 19.9379 8.28448 17.2198 8.28448 12.0027Z" fill="#C52D52"/>
<path d="M3.06761 10.6437C2.69496 10.6656 2.38808 10.9725 2.36616 11.3451C2.34424 11.5643 2.34424 11.7835 2.34424 12.0027C2.34424 12.8138 2.45384 13.6029 2.6292 14.3482C2.71688 14.7428 3.13337 14.9839 3.52793 14.8962C3.9225 14.8085 4.16362 14.392 4.07594 13.9975V13.9756C3.9225 13.3399 3.83482 12.6823 3.83482 11.9808C3.83482 11.8055 3.83482 11.6082 3.85674 11.4328C3.90058 11.0163 3.59369 10.6656 3.17721 10.6437H3.06761Z" fill="#C52D52"/>
<path d="M11.2439 12.0027C11.2219 11.6082 11.5507 11.2574 11.9672 11.2574C12.4056 11.2574 12.7344 11.5863 12.7344 12.0247C12.7344 14.0852 12.6248 15.8169 12.4714 17.1759V17.1978C12.4056 17.5924 12.0549 17.8774 11.6384 17.8335C11.2439 17.7678 10.9589 17.417 11.0027 17.0006C11.1343 15.6853 11.2439 14.0194 11.2439 12.0027Z" fill="#C52D52"/>
<path d="M14.5538 17.3732C14.1811 17.3732 13.8523 17.6581 13.8085 18.0308C13.6331 19.5214 13.4797 20.5297 13.4797 20.5297C13.4139 20.9242 13.6989 21.3188 14.0934 21.3846C14.488 21.4503 14.8826 21.1654 14.9483 20.7708C14.9483 20.7708 15.1237 19.7406 15.2991 18.2061C15.3429 17.7897 15.0579 17.417 14.6634 17.3732H14.5538Z" fill="#C52D52"/>
<path d="M10.5425 19.9159C10.6082 19.5652 10.9151 19.3241 11.2658 19.3241C11.2963 19.3241 11.3221 19.3288 11.3498 19.3339C11.3817 19.3397 11.4161 19.346 11.4631 19.346C11.8577 19.4556 12.0988 19.8502 12.0111 20.2447C11.8796 20.8147 11.7919 21.1216 11.7919 21.1216C11.6604 21.5161 11.2439 21.7353 10.8493 21.6038C10.4548 21.4723 10.2356 21.0558 10.3671 20.6612C10.3671 20.6612 10.4329 20.442 10.5425 19.9159Z" fill="#C52D52"/>
</svg>
