<svg id="Capa_1" data-name="Capa 1" xmlns="http://www.w3.org/2000/svg" viewBox="0 0 24 24"><defs><style>.cls-1{fill:#c52d52;}</style></defs><title>unlock</title><path class="cls-1" d="M15.82,8.63H8.19V7.28A3.8,3.8,0,0,1,12,3.5h0A3.8,3.8,0,0,1,15.6,6.06a.75.75,0,0,0,1,.46A.74.74,0,0,0,17,5.57,5.3,5.3,0,0,0,12,2h0a5.31,5.31,0,0,0-5.3,5.3V8.88a4.54,4.54,0,0,0-3.05,4.29v4.29A4.54,4.54,0,0,0,8.18,22h7.64a4.55,4.55,0,0,0,4.54-4.54V13.17A4.54,4.54,0,0,0,15.82,8.63Zm3,8.83a3,3,0,0,1-3,3H8.18a3,3,0,0,1-3-3V13.17a3,3,0,0,1,3-3h7.64a3,3,0,0,1,3,3ZM12.75,14.2v2.22a.75.75,0,0,1-1.5,0V14.2a.75.75,0,0,1,1.5,0Z"/></svg>