<svg width="24" height="24" viewBox="0 0 24 24" fill="none" xmlns="http://www.w3.org/2000/svg">
<path fill-rule="evenodd" clip-rule="evenodd" d="M11.921 15.9962C7.66 15.9962 5.5 16.7282 5.5 18.1732C5.5 19.6312 7.66 20.3702 11.921 20.3702C16.181 20.3702 18.34 19.6382 18.34 18.1932C18.34 16.7352 16.181 15.9962 11.921 15.9962ZM11.921 21.8702C9.962 21.8702 4 21.8702 4 18.1732C4 14.8772 8.521 14.4962 11.921 14.4962C13.88 14.4962 19.84 14.4962 19.84 18.1932C19.84 21.4892 15.32 21.8702 11.921 21.8702Z" fill="#3B3A45"/>
<path fill-rule="evenodd" clip-rule="evenodd" d="M11.9209 3.42776C9.7799 3.42776 8.0379 5.16876 8.0379 7.30976C8.0309 9.44376 9.7599 11.1838 11.8919 11.1918L11.9209 11.9058V11.1918C14.0609 11.1918 15.8019 9.44976 15.8019 7.30976C15.8019 5.16876 14.0609 3.42776 11.9209 3.42776ZM11.9209 12.6188H11.8889C8.9669 12.6098 6.5999 10.2268 6.6099 7.30676C6.6099 4.38176 8.9919 1.99976 11.9209 1.99976C14.8489 1.99976 17.2299 4.38176 17.2299 7.30976C17.2299 10.2378 14.8489 12.6188 11.9209 12.6188Z" fill="#3B3A45"/>
</svg>
