<svg width="24" height="24" viewBox="0 0 24 24" fill="none" xmlns="http://www.w3.org/2000/svg">
<path fill-rule="evenodd" clip-rule="evenodd" d="M3.80188 4.05786C2.2831 4.05786 1.05188 5.28908 1.05188 6.80786V17.1921C1.05188 18.7108 2.2831 19.9421 3.80188 19.9421H14.0792C15.598 19.9421 16.8292 18.7108 16.8292 17.1921V14.8266L19.4627 16.5566C20.9589 17.5395 22.9481 16.4662 22.9481 14.6761V8.73152C22.9481 7.00646 21.0867 5.92309 19.5867 6.77515L16.8292 8.34159V6.80786C16.8292 5.28908 15.598 4.05786 14.0792 4.05786H3.80188ZM2.55188 6.80786C2.55188 6.11751 3.11153 5.55786 3.80188 5.55786H14.0792C14.7696 5.55786 15.3292 6.11751 15.3292 6.80786V17.1921C15.3292 17.8824 14.7696 18.4421 14.0792 18.4421H3.80188C3.11152 18.4421 2.55188 17.8824 2.55188 17.1921V6.80786ZM20.2863 15.3029L16.8292 13.0319V10.0667L20.3276 8.0794C20.8276 7.79538 21.4481 8.15651 21.4481 8.73153V14.6761C21.4481 15.2728 20.785 15.6305 20.2863 15.3029Z" fill="#3B3A45"/>
</svg>
