<svg fill="none" height="40" viewBox="0 0 40 40" width="40" xmlns="http://www.w3.org/2000/svg"><path d="m24.16 12.1h-8.58v15.42h8.58z" fill="#ff5f00"/><path d="m16.12 19.81a9.81 9.81 0 0 1 3.75-7.71 9.81 9.81 0 0 0 -10.35-1.1 9.81 9.81 0 0 0 5.34 18.57 9.72 9.72 0 0 0 5-2 9.67 9.67 0 0 1 -2.76-3.42 9.81 9.81 0 0 1 -.98-4.34z" fill="#eb001b"/><path d="m35.74 19.81a9.88 9.88 0 0 1 -1.49 5.19 9.82 9.82 0 0 1 -14.38 2.5 9.8 9.8 0 0 0 0-15.42 9.82 9.82 0 0 1 14.38 2.5 9.88 9.88 0 0 1 1.49 5.21z" fill="#f79e1b"/></svg>