<svg fill="none" height="40" viewBox="0 0 40 40" width="40" xmlns="http://www.w3.org/2000/svg"><path d="m24.1621 9.09766h-8.5831v15.42504h8.5831z" fill="#ff5f00"/><path d="m16.1239 16.8116c-.0016-1.4857.3349-2.9524.984-4.2889.6491-1.3364 1.5938-2.5077 2.7626-3.42499-1.4471-1.13727-3.185-1.84447-5.015-2.04077-1.83-.19631-3.6784.1262-5.33375.93067-1.65539.80447-3.05106 2.05839-4.0275 3.61859-.97644 1.5601-1.49425 3.3635-1.49425 5.204 0 1.8406.51781 3.644 1.49425 5.2041s2.37211 2.8141 4.0275 3.6186c1.65535.8044 3.50375 1.127 5.33375.9307s3.5679-.9036 5.015-2.0408c-1.1684-.9171-2.1129-2.0879-2.762-3.4238-.6491-1.336-.9858-2.8021-.9846-4.2874z" fill="#eb001b"/><path d="m35.7424 16.8118c0 1.8406-.518 3.6441-1.4946 5.2043s-2.3725 2.8142-4.0281 3.6185c-1.6556.8044-3.5041 1.1267-5.3342.9301s-3.568-.9041-5.015-2.0418c1.1679-.9178 2.1121-2.089 2.7614-3.425s.9866-2.8021.9866-4.2875-.3373-2.9515-.9866-4.2875-1.5935-2.5072-2.7614-3.42503c1.447-1.13763 3.1849-1.84517 5.015-2.04176 1.8301-.19658 3.6786.12572 5.3342.93007s3.0515 2.05832 4.0281 3.61852 1.4946 3.3637 1.4946 5.2043z" fill="#f79e1b"/><path d="m34.8051 22.8878v-.3161h.128v-.0654h-.3242v.0654h.139v.3161zm.6294 0v-.3815h-.0981l-.1144.2725-.1145-.2725h-.0872v.3815h.0709v-.2861l.1062.248h.0736l.1063-.248v.2888z" fill="#f79e1b"/><path d="m9.11687 31.2718v-1.6348c.00953-.1375-.01035-.2755-.05831-.4047-.04797-.1292-.12292-.2467-.21986-.3447s-.21364-.1741-.34234-.2235c-.12869-.0493-.26642-.0706-.40401-.0626-.18009-.0118-.36006.025-.5211.1065-.16104.0814-.29726.2047-.39443.3567-.08858-.1475-.21531-.2684-.36685-.3499s-.32227-.1207-.49419-.1133c-.14985-.0075-.29909.0242-.43292.092-.13382.0679-.24759.1696-.33002.295v-.3216h-.56676v2.6049h.57221v-1.4332c-.01217-.0891-.00451-.1798.02243-.2655.02694-.0858.07249-.1646.13341-.2307s.13569-.118.21897-.1518c.08328-.0339.17302-.049.26279-.0441.37602 0 .56676.2452.56676.6866v1.4496h.57221v-1.4441c-.01168-.089-.00367-.1795.02345-.265.02713-.0856.07271-.1641.13352-.2301.06081-.0661.13538-.1179.21842-.1519.08305-.0341.17256-.0495.26221-.0451.38692 0 .57221.2452.57221.6866v1.4496zm8.46593-2.6049h-.9319v-.7902h-.5722v.7902h-.5177v.5177h.5286v1.1989c0 .605.2344.9646.9047.9646.2504.0009.496-.069.7084-.2016l-.1635-.485c-.152.0906-.3245.1413-.5013.1471-.2725 0-.3761-.1744-.3761-.436v-1.188h.9265zm4.8338-.0654c-.1382-.004-.2749.0293-.3957.0964-.1209.0671-.2214.1656-.2909.2851v-.3161h-.5614v2.6049h.5668v-1.4605c0-.4305.1853-.6703.545-.6703.1212-.0016.2415.0206.3542.0654l.1744-.5449c-.1295-.0463-.2658-.0703-.4033-.0709zm-7.3079.2725c-.3208-.1907-.6897-.2853-1.0627-.2725-.6594 0-1.0899.3161-1.0899.8338 0 .4251.3161.6867.8992.7684l.2725.0382c.3106.0436.4577.1253.4577.2724 0 .2017-.207.3161-.594.3161-.3112.009-.6164-.087-.8665-.2725l-.2724.4415c.3301.2305.7255.3489 1.128.3378.7521 0 1.188-.3542 1.188-.8501s-.3433-.6976-.91-.7793l-.2725-.0381c-.2452-.0327-.4414-.0818-.4414-.2562s.1853-.3052.4959-.3052c.2871.0034.5685.0803.8174.2235zm15.1798-.2725c-.1381-.004-.2749.0293-.3957.0964-.1209.0671-.2214.1656-.2909.2851v-.3161h-.5613v2.6049h.5667v-1.4605c0-.4305.1853-.6703.545-.6703.1212-.0016.2416.0206.3542.0654l.1744-.5449c-.1294-.0463-.2658-.0703-.4033-.0709zm-7.3024 1.3624c-.0068.1831.0248.3655.0926.5357s.1704.3243.3012.4525c.1308.1283.287.2278.4584.2922.1715.0645.3545.0924.5374.082.3403.0173.6748-.0935.9374-.3106l-.2725-.4578c-.1959.1494-.4348.2316-.6812.2344-.2095-.017-.4049-.1122-.5474-.2667s-.2217-.3569-.2217-.5671.0792-.4127.2217-.5672.3379-.2497.5474-.2666c.2464.0027.4853.0849.6812.2343l.2725-.4577c-.2626-.2172-.5971-.328-.9374-.3107-.1829-.0103-.3659.0176-.5374.082-.1714.0645-.3276.164-.4584.2922-.1308.1283-.2334.2824-.3012.4526-.0678.1701-.0994.3526-.0926.5356zm5.3079 0v-1.297h-.5668v.3161c-.0962-.1238-.2205-.223-.3627-.2893-.1421-.0664-.298-.098-.4547-.0922-.3613 0-.7079.1436-.9634.3991s-.399.602-.399.9633c0 .3614.1435.7079.399.9634s.6021.399.9634.399c.1567.0058.3126-.0258.4547-.0921.1422-.0663.2665-.1655.3627-.2893v.316h.5668zm-2.109 0c.009-.1533.0627-.3006.1544-.4239.0918-.1232.2175-.2169.3618-.2695s.3008-.0619.4503-.0268c.1496.0352.2855.1134.3912.2249.1056.1115.1764.2514.2035.4026s.0094.307-.0509.4483c-.0603.1412-.1606.2618-.2886.3467-.1279.085-.2779.1307-.4315.1315-.1079.0014-.2149-.0196-.3143-.0616s-.189-.1041-.2632-.1824-.1314-.1711-.168-.2726c-.0367-.1015-.0519-.2095-.0447-.3172zm-6.8392-1.3624c-.3614.0051-.7059.1535-.9578.4126-.2519.259-.3906.6076-.3856.9689.0051.3613.1535.7059.4126.9578.259.2519.6076.3906.9689.3855.392.0202.7776-.1061 1.0817-.3542l-.2724-.4196c-.2152.1725-.4817.2684-.7575.2725-.1874.0161-.3736-.0415-.5191-.1606-.1456-.1191-.2389-.2902-.2602-.477h1.9346c0-.0709 0-.1417 0-.218 0-.8175-.5068-1.3624-1.2371-1.3624zm0 .5068c.0848-.0018.1691.0132.2481.0439.0791.0308.1513.0769.2125.1356.0613.0587.1103.1289.1444.2066s.0526.1613.0544.2461h-1.3624c.0098-.1749.0878-.339.2171-.4572.1294-.1181.2999-.1809.475-.175zm14.1989.8611v-2.3488h-.545v1.3624c-.0962-.1238-.2206-.223-.3627-.2893-.1421-.0664-.298-.098-.4547-.0922-.3614 0-.7079.1436-.9634.3991s-.399.602-.399.9633c0 .3614.1435.7079.399.9634s.602.399.9634.399c.1567.0058.3126-.0258.4547-.0921s.2665-.1655.3627-.2893v.316h.545zm.9455.9237c.0354-.0004.0706.006.1035.0191.0313.0127.06.0312.0845.0545.0239.0234.0433.0512.0572.0817.0138.0318.0209.0661.0209.1008s-.0071.069-.0209.1008c-.0139.0306-.0333.0583-.0572.0818-.0245.0232-.0532.0417-.0845.0545-.0326.0144-.0679.0218-.1035.0218-.0517-.0004-.1022-.0155-.1456-.0435-.0434-.0279-.078-.0677-.0997-.1146-.0136-.0318-.0206-.0661-.0206-.1008 0-.0346.007-.0689.0206-.1008.0139-.0305.0333-.0583.0573-.0817.0245-.0233.0531-.0418.0844-.0545.0355-.0142.0736-.0207.1117-.0191zm0 .4605c.0272.0001.0541-.0054.079-.0164.0234-.0104.0447-.0252.0627-.0436.034-.0372.053-.0858.053-.1362 0-.0505-.019-.0991-.053-.1362-.018-.0184-.0392-.0332-.0627-.0436-.0249-.0109-.0518-.0165-.079-.0164-.0272.0002-.0541.0057-.079.0164-.0245.01-.0468.0248-.0654.0436-.0341.0371-.053.0857-.053.1362 0 .0504.0189.099.053.1362.0187.0187.0409.0335.0654.0436.0274.0119.0572.0175.0871.0164zm.0163-.3243c.0255-.0012.0505.0065.0709.0218.0083.0069.0149.0157.0191.0257.0043.0099.0061.0207.0054.0315.0004.0091-.0011.0181-.0044.0266-.0033.0084-.0083.0161-.0147.0225-.0158.0143-.0359.023-.0572.0245l.079.0899h-.0627l-.0735-.0899h-.0245v.0899h-.0518v-.2397zm-.0599.0463v.0654h.0599c.0107.0032.0221.0032.0327 0 .0019-.0038.0029-.008.0029-.0122 0-.0043-.001-.0085-.0029-.0123.0019-.0038.0029-.008.0029-.0122 0-.0043-.001-.0085-.0029-.0123-.0106-.0032-.022-.0032-.0327 0zm-2.9973-1.1062c.009-.1534.0627-.3007.1544-.4239.0918-.1232.2175-.2169.3618-.2696.1443-.0526.3008-.0619.4503-.0267.1496.0352.2855.1133.3912.2248.1056.1115.1764.2515.2035.4027.0271.1511.0094.307-.0509.4482-.0603.1413-.1606.2618-.2885.3468-.128.085-.278.1307-.4316.1315-.1079.0013-.2149-.0196-.3143-.0616s-.189-.1041-.2632-.1825c-.0742-.0783-.1314-.1711-.168-.2726s-.0518-.2095-.0447-.3171zm-19.1362 0v-1.3025h-.5668v.3161c-.0962-.1238-.2206-.223-.3627-.2893-.1421-.0664-.298-.098-.4547-.0922-.3614 0-.7079.1436-.9634.3991s-.39903.602-.39903.9633c0 .3614.14353.7079.39903.9634s.602.399.9634.399c.1567.0058.3126-.0258.4547-.0921s.2665-.1655.3627-.2893v.316h.5668zm-2.109 0c.009-.1534.0627-.3007.1544-.4239s.2175-.2169.3618-.2696c.1443-.0526.3008-.0619.4503-.0267s.2855.1133.3911.2248c.1057.1115.1764.2515.2036.4027.0271.1511.0094.307-.0509.4482-.0603.1413-.1606.2618-.2886.3468-.1279.085-.2779.1307-.4315.1315-.1084.0021-.216-.0183-.316-.06-.1001-.0416-.1903-.1036-.2652-.182-.0748-.0784-.1325-.1715-.1694-.2734s-.0523-.2103-.0451-.3184z" fill="#fff"/></svg>