<svg fill="none" height="40" viewBox="0 0 40 40" width="40" xmlns="http://www.w3.org/2000/svg"><path clip-rule="evenodd" d="m11.6179 25.9143h-2.9832l-2.23701-8.5335c-.10618-.3925-.33162-.7395-.66325-.9031-.8276-.411-1.73957-.7381-2.73444-.9031v-.3286h4.80564c.66325 0 1.16068.4936 1.24359 1.0667l1.16067 6.1555 2.9817-7.2222h2.9003zm6.1321 0h-2.8174l2.32-10.6683h2.8173zm5.9649-7.7128c.0829-.5746.5804-.9031 1.1607-.9031.912-.0825 1.9054.0824 2.7345.4921l.4974-2.297c-.8291-.3285-1.741-.4935-2.5686-.4935-2.7345 0-4.7242 1.4777-4.7242 3.5286 0 1.5602 1.4094 2.3794 2.4043 2.8729 1.0763.4921 1.4908.8207 1.4079 1.3128 0 .7381-.8291 1.0667-1.6567 1.0667-.9948 0-1.9897-.2461-2.9002-.6571l-.4975 2.2983c.9949.4096 2.0712.5746 3.0661.5746 3.0661.0811 4.9715-1.3952 4.9715-3.6111 0-2.7904-3.8952-2.954-3.8952-4.1842zm13.7551 7.7128-2.237-10.6683h-2.4029c-.4974 0-.9948.3286-1.1606.8207l-4.1424 9.8476h2.9002l.5789-1.5588h3.5635l.3316 1.5588zm-4.2253-7.7953.8276 4.0207h-2.3199z" fill="#fff" fill-rule="evenodd"/></svg>