<svg fill="none" height="40" viewBox="0 0 40 40" width="40" xmlns="http://www.w3.org/2000/svg"><g fill="#fff"><path d="m11.4638 21.8182 4.4552-10.625h-2.8977l-2.8615 7.2322-1.15909-6.1456c-.13281-.6882-.66406-1.0866-1.26776-1.0866h-4.67258l-.06037.3139c.96591.2053 2.05256.5433 2.71662.9055.39844.2174.51917.4106.65199.9297l2.19744 8.4759z"/><path d="m24.8129 15.3639c1.1115.5844 2.499 1.3139 2.4918 2.9891-.0121 2.1974-1.9077 3.6342-4.7933 3.6342-1.2195-.0121-2.4148-.2777-3.0547-.5675l.495-2.3302c.0198.0093.0397.0187.0598.0282.6299.2978 1.4199.6713 2.7655.6479.7848-.0121 1.63-.326 1.642-1.0383 0-.4588-.3501-.7969-1.4247-1.3161-1.0383-.5192-2.4148-1.3643-2.4027-2.8977.0242-2.0646 1.9318-3.5135 4.6485-3.5135 1.0625 0 1.9076.2294 2.5717.4709l-.483 2.2457c-1.2194-.5675-2.3061-.5192-2.7045-.4709-.7969.1087-1.1591.5071-1.1712.8935-.0097.5047.6127.832 1.3598 1.2247z"/><path clip-rule="evenodd" d="m37 21.8182h-2.5355l-.3381-1.5817h-3.5255l-.5675 1.5817h-2.8857l4.1172-9.8402c.2053-.483.6399-.7848 1.1712-.7848h2.3423zm-4.1413-7.7514-1.4489 3.9843h2.282z" fill-rule="evenodd"/><path d="m17.5732 21.8182 2.2698-10.625h-2.7528l-2.2699 10.625z"/><path clip-rule="evenodd" d="m25.6989 23.0256h-.6399l.0241 4.25c0 .2465-.0149.5153-.0271.7363-.0034.0605-.0065.1174-.0091.1692h.5433l.0362-.5795h.0121c.2656.4709.6761.664 1.1832.664.7728 0 1.5817-.6278 1.5817-1.8835 0-1.0625-.6158-1.7869-1.4972-1.7869-.5553 0-.9659.2535-1.1953.6399h-.012zm.012 3.9843c-.012-.0724-.0241-.1448-.0241-.2293h.0121v-.64c0-.0966.012-.1811.0362-.2656.1328-.4829.5312-.7848.9659-.7848.6882 0 1.0504.6037 1.0504 1.3161 0 .8089-.3984 1.3522-1.0746 1.3522-.4708 0-.8451-.3019-.9659-.7486z" fill-rule="evenodd"/><path clip-rule="evenodd" d="m21.5817 26.5391c.0121.8693.5554 1.2194 1.2074 1.2194.4588 0 .7486-.0724.978-.1811l.1207.4588c-.2294.1087-.6158.2294-1.1832.2294-1.0867 0-1.7387-.7244-1.7266-1.7869 0-1.0625.6279-1.8835 1.6541-1.8835 1.1591 0 1.4489 1.0021 1.4489 1.6541 0 .1328 0 .2294-.0242.3018zm1.8714-.4468c.0121-.3984-.169-1.0383-.8934-1.0383-.652 0-.9297.5916-.978 1.0383z" fill-rule="evenodd"/><path d="m23.6101 23.1463-.8935 1.0384h-.4467l.6399-1.0384z"/><path clip-rule="evenodd" d="m16.1847 23.3516c.3863-.0604.8451-.1087 1.3522-.1087.9056 0 1.5576.2173 1.9801.6158.4347.3984.7003.9659.7003 1.7628 0 .7968-.2535 1.4609-.7123 1.8955-.4709.4589-1.2195.7003-2.1733.7003-.4588 0-.8331-.0241-1.147-.0603zm.6399 4.3345c.1569.0241.3984.0241.6399.0241 1.3643 0 2.0888-.7485 2.0888-2.0767.012-1.1591-.64-1.8956-1.9802-1.8956-.3259 0-.5795.0242-.7365.0604z" fill-rule="evenodd"/><path d="m30.0817 23.6896c0 .2174-.1449.3985-.4105.3985-.2294 0-.3864-.1811-.3864-.3985 0-.2173.157-.3984.3985-.3984.2414 0 .3984.169.3984.3984z"/><path d="m29.3693 28.2053v-3.5256h.64v3.5256z"/><path d="m32.0376 24.6797v-.8452l-.6278.1811v.652h-.5433v.483h.5433v1.9197c0 .4226.0845.7365.2535.9297.1449.169.3864.2777.6882.2777.2415 0 .4468-.0362.5675-.0845l-.0241-.495c-.0966.0362-.2053.0483-.3743.0483-.3622 0-.483-.2536-.483-.6883v-1.8956h.9176v-.4829z"/><path clip-rule="evenodd" d="m36.9879 26.4183c0 1.304-.9176 1.8715-1.7628 1.8715-.9417 0-1.6782-.7003-1.6782-1.8111 0-1.1712.7848-1.8594 1.7507-1.8594 1.0142 0 1.6903.7365 1.6903 1.799zm-2.789.0363c0 .7727.4346 1.3522 1.0625 1.3522.6037 0 1.0745-.5674 1.0745-1.3643 0-.6037-.3018-1.3523-1.0504-1.3523s-1.0746.7003-1.0866 1.3644z" fill-rule="evenodd"/></g></svg>